<svg width="100" height="100" viewBox="0 0 100 100" fill="none" xmlns="http://www.w3.org/2000/svg">
<rect width="100" height="100" rx="50" fill="white"/>
<path d="M72.1667 58.1666C72.8201 58.1666 73.3334 58.68 73.3334 59.3333V61.6666C73.3334 65.54 70.2067 68.6666 66.3334 68.6666C66.3334 64.8166 63.1834 61.6666 59.3334 61.6666C55.4834 61.6666 52.3334 64.8166 52.3334 68.6666H47.6667C47.6667 64.8166 44.5167 61.6666 40.6667 61.6666C36.8167 61.6666 33.6667 64.8166 33.6667 68.6666C29.7934 68.6666 26.6667 65.54 26.6667 61.6666V57C26.6667 55.7166 27.7167 54.6666 29.0001 54.6666H51.1667C54.3867 54.6666 57.0001 52.0533 57.0001 48.8333V36C57.0001 34.7166 58.0501 33.6666 59.3334 33.6666H61.2934C62.9734 33.6666 64.5134 34.5766 65.3534 36.0233L66.8467 38.6366C67.0567 39.01 66.7767 39.5 66.3334 39.5C63.1134 39.5 60.5001 42.1133 60.5001 45.3333V52.3333C60.5001 55.5533 63.1134 58.1666 66.3334 58.1666H72.1667Z" fill="#E09200"/>
<path d="M44.8333 68.6667C44.8333 70.9679 42.9679 72.8333 40.6667 72.8333C38.3655 72.8333 36.5 70.9679 36.5 68.6667C36.5 66.3655 38.3655 64.5 40.6667 64.5C42.9679 64.5 44.8333 66.3655 44.8333 68.6667Z" fill="#C3D2CC" stroke="#C3D2CC"/>
<path d="M63.5001 68.6667C63.5001 70.9679 61.6346 72.8333 59.3334 72.8333C57.0322 72.8333 55.1667 70.9679 55.1667 68.6667C55.1667 66.3655 57.0322 64.5 59.3334 64.5C61.6346 64.5 63.5001 66.3655 63.5001 68.6667Z" fill="#C3D2CC" stroke="#C3D2CC"/>
<path d="M73.3333 51.2367V54.6667H66.3333C65.05 54.6667 64 53.6167 64 52.3333V45.3333C64 44.05 65.05 43 66.3333 43H69.3433L72.7267 48.9267C73.1233 49.6267 73.3333 50.42 73.3333 51.2367Z" fill="#C3D2CC"/>
<path d="M52.5198 26.6666H35.2765C31.0998 26.6666 27.5998 29.6533 26.8298 33.62H37.0265C37.9132 33.62 38.6132 34.3433 38.6132 35.23C38.6132 36.1166 37.9132 36.8166 37.0265 36.8166H26.6665V40.0366H32.7332C33.6198 40.0366 34.3432 40.76 34.3432 41.6466C34.3432 42.5333 33.6198 43.2333 32.7332 43.2333H26.6665V46.4533H28.4632C29.3498 46.4533 30.0732 47.1766 30.0732 48.0633C30.0732 48.95 29.3498 49.65 28.4632 49.65H26.6665V50.1866C26.6665 51.47 27.7165 52.52 28.9998 52.52H50.3498C52.7298 52.52 54.6665 50.5833 54.6665 48.2033V28.8133C54.6665 27.6233 53.7098 26.6666 52.5198 26.6666Z" fill="#E09200"/>
<path d="M26.8299 33.62H26.4799H24.1933C23.3066 33.62 22.5833 34.3433 22.5833 35.23C22.5833 36.1167 23.3066 36.8167 24.1933 36.8167H26.3166H26.6666V35.2767C26.6666 34.7167 26.7366 34.1567 26.8299 33.62Z" fill="#E09200"/>
<path d="M26.3166 40.0366H24.1933C23.3066 40.0366 22.5833 40.76 22.5833 41.6466C22.5833 42.5333 23.3066 43.2333 24.1933 43.2333H26.3166H26.6666V40.0366H26.3166Z" fill="#E09200"/>
<path d="M26.3166 46.4532H24.1933C23.3066 46.4532 22.5833 47.1766 22.5833 48.0632C22.5833 48.9499 23.3066 49.6499 24.1933 49.6499H26.3166H26.6666V46.4532H26.3166Z" fill="#E09200"/>
<rect x="30" y="84" width="40" height="4" rx="2" fill="#F2F6F4"/>
</svg>
