<svg width="100" height="100" viewBox="0 0 100 100" fill="none" xmlns="http://www.w3.org/2000/svg">
<rect width="100" height="100" rx="50" fill="white"/>
<path d="M75.667 57.8632V62.9733C75.667 68.6666 71.5136 74.0331 65.8669 75.5964C65.4703 75.6898 65.0503 75.6898 64.677 75.5964C61.9236 74.8498 59.497 73.1698 57.7936 70.9998C55.9503 68.7132 54.877 65.89 54.877 62.9733V57.8632C54.877 56.8832 55.6003 55.8097 56.487 55.4364L62.9736 52.7764C64.4436 52.193 66.0769 52.193 67.5469 52.7764L69.8803 53.7331L74.057 55.4364C74.9436 55.8097 75.667 56.8832 75.667 57.8632Z" fill="#E09200" stroke="#E09200" stroke-width="1.5" stroke-linecap="round" stroke-linejoin="round"/>
<path d="M70.8837 47.6904L69.8803 53.7336L67.547 52.7769C66.077 52.1936 64.4437 52.1936 62.9737 52.7769L56.487 55.4369C55.6003 55.8103 54.877 56.8837 54.877 57.8637V62.9738C54.877 65.8905 55.9503 68.7137 57.7937 71.0004H36.4203C33.2236 71.0004 30.2137 68.4572 29.677 65.3072L26.737 47.6904C26.3637 45.5204 27.4603 42.6037 29.187 41.227L44.5403 28.9536C46.897 27.0636 50.7237 27.0637 53.0803 28.977L68.4337 41.227C70.137 42.6037 71.257 45.5204 70.8837 47.6904Z" stroke="#E09200" stroke-width="1.5" stroke-linecap="round" stroke-linejoin="round"/>
<rect x="30" y="84" width="40" height="4" rx="2" fill="#F2F6F4"/>
</svg>
