<?xml version="1.0" encoding="iso-8859-1"?>
<!-- Generator: Adobe Illustrator 26.0.1, SVG Export Plug-In . SVG Version: 6.00 Build 0)  -->
<svg version="1.1" id="Layer_1" xmlns="http://www.w3.org/2000/svg" xmlns:xlink="http://www.w3.org/1999/xlink" x="0px" y="0px"
	 viewBox="0 0 1000 1000" style="enable-background:new 0 0 1000 1000;" xml:space="preserve">
<g id="watermark_1_">
	<g>
		<g id="watermark" style="opacity:0.61;">
			<g>
				<g>
					<g>
						<g>
							<polygon style="fill:#FFFFFF;" points="421.112,924.528 409.007,952.493 402.615,952.493 390.55,924.528 397.541,924.528 
								406.051,944.503 414.68,924.528 							"/>
						</g>
						<g>
							<path style="fill:#FFFFFF;" d="M442.323,943.185h-16.26c0.599,2.677,2.876,4.315,6.153,4.315
								c2.277,0,3.915-0.679,5.393-2.077l3.316,3.595c-1.997,2.278-4.994,3.476-8.868,3.476c-7.431,0-12.265-4.674-12.265-11.067
								c0-6.432,4.914-11.066,11.466-11.066c6.312,0,11.186,4.235,11.186,11.146C442.443,941.987,442.363,942.666,442.323,943.185
								 M425.983,939.55h10.587c-0.44-2.717-2.478-4.475-5.274-4.475C428.46,935.075,426.422,936.793,425.983,939.55"/>
						</g>
						<g>
							<path style="fill:#FFFFFF;" d="M444.997,941.427c0-6.471,4.994-11.066,11.985-11.066c4.514,0,8.07,1.958,9.628,5.473
								l-4.834,2.597c-1.159-2.038-2.877-2.956-4.834-2.956c-3.156,0-5.633,2.198-5.633,5.952c0,3.756,2.477,5.953,5.633,5.953
								c1.958,0,3.675-0.879,4.834-2.956l4.834,2.637c-1.558,3.436-5.114,5.433-9.628,5.433
								C449.991,952.493,444.997,947.899,444.997,941.427"/>
						</g>
						<g>
							<path style="fill:#FFFFFF;" d="M484.386,951.135c-1.279,0.919-3.157,1.358-5.074,1.358c-5.073,0-8.03-2.597-8.03-7.711
								v-8.829h-3.316v-4.794h3.316v-5.233h6.232v5.233h5.353v4.794h-5.353v8.749c0,1.837,0.998,2.836,2.677,2.836
								c0.918,0,1.837-0.279,2.517-0.799L484.386,951.135z"/>
						</g>
					</g>
					<g>
						<path style="fill:#FFFFFF;" d="M527.157,930.68v5.753c-0.519-0.04-0.918-0.08-1.398-0.08c-3.435,0-5.713,1.877-5.713,5.993
							v10.147h-6.232V931h5.953v2.836C521.284,931.759,523.841,930.68,527.157,930.68"/>
					</g>
					<g>
						<path style="fill:#FFFFFF;" d="M528.954,949.257l2.197-4.874c2.357,1.718,5.873,2.916,9.229,2.916
							c3.836,0,5.393-1.278,5.393-2.996c0-5.233-16.26-1.638-16.26-12.025c0-4.754,3.835-8.709,11.785-8.709
							c3.516,0,7.112,0.839,9.708,2.477l-1.998,4.914c-2.597-1.478-5.273-2.197-7.75-2.197c-3.835,0-5.313,1.438-5.313,3.196
							c0,5.154,16.259,1.598,16.259,11.865c0,4.675-3.875,8.67-11.865,8.67C535.905,952.493,531.43,951.175,528.954,949.257"/>
					</g>
					<g>
						<path style="fill:#FFFFFF;" d="M577.131,943.185h-16.26c0.599,2.677,2.876,4.315,6.153,4.315c2.277,0,3.915-0.679,5.393-2.077
							l3.316,3.595c-1.998,2.278-4.994,3.476-8.869,3.476c-7.431,0-12.265-4.674-12.265-11.067c0-6.432,4.914-11.066,11.466-11.066
							c6.312,0,11.187,4.235,11.187,11.146C577.251,941.987,577.171,942.666,577.131,943.185 M560.791,939.55h10.587
							c-0.439-2.717-2.477-4.475-5.273-4.475C563.268,935.075,561.231,936.793,560.791,939.55"/>
					</g>
					<g>
						<path style="fill:#FFFFFF;" d="M602.337,943.185h-16.26c0.599,2.677,2.876,4.315,6.152,4.315c2.277,0,3.915-0.679,5.393-2.077
							l3.316,3.595c-1.998,2.278-4.994,3.476-8.869,3.476c-7.431,0-12.265-4.674-12.265-11.067c0-6.432,4.914-11.066,11.466-11.066
							c6.312,0,11.186,4.235,11.186,11.146C602.457,941.987,602.377,942.666,602.337,943.185 M585.997,939.55h10.587
							c-0.439-2.717-2.477-4.475-5.273-4.475C588.474,935.075,586.437,936.793,585.997,939.55"/>
					</g>
					<g>
						<polygon style="fill:#FFFFFF;" points="615.838,944.064 612.841,947.02 612.841,952.493 606.61,952.493 606.61,922.85 
							612.841,922.85 612.841,939.629 621.95,931 629.381,931 620.432,940.108 630.18,952.493 622.63,952.493 						"/>
					</g>
					<g>
						<path style="fill:#FFFFFF;" d="M514.371,955.416L514.371,955.416l-6.226-6.226c-0.947,1.107-2.075,2.054-3.339,2.796
							c-0.201,0.15-0.406,0.296-0.616,0.433l6.589,6.589c0.992,0.992,2.601,0.992,3.592,0
							C515.363,958.017,515.363,956.408,514.371,955.416"/>
					</g>
					<g>
						<path style="fill:#FFFFFF;" d="M499.965,929.04c0.48-0.377,1.077-0.612,1.735-0.612c0.091,0,0.181,0.005,0.27,0.013
							c-0.466-0.34-1.041-0.542-1.663-0.542c-0.859,0-1.619,0.392-2.137,0.998c-0.111,0-0.218,0.013-0.328,0.016
							c0.086-0.167,0.139-0.354,0.139-0.555c0-0.509-0.311-0.945-0.752-1.13c0.19,0.275,0.301,0.608,0.301,0.968
							c0,0.267-0.066,0.517-0.176,0.742c-6.119,0.437-10.95,5.527-10.95,11.757c0,6.516,5.283,11.799,11.799,11.799
							c6.517,0,11.8-5.283,11.8-11.799C510.004,934.777,505.644,929.892,499.965,929.04 M495.61,932.114
							c0.947,0,1.837,0.244,2.611,0.674c0.813-0.532,1.785-0.842,2.828-0.842c1.547,0,2.934,0.68,3.883,1.756
							c-0.948-0.826-2.186-1.328-3.541-1.328c-0.977,0-1.895,0.261-2.686,0.716c-0.172,0.1-0.34,0.208-0.499,0.326
							c-0.142-0.104-0.29-0.203-0.444-0.292c-0.803-0.476-1.741-0.749-2.743-0.749c-0.653,0-1.279,0.117-1.86,0.331
							C493.895,932.328,494.727,932.114,495.61,932.114 M503.858,941.785c0.25,0.664,0.394,1.38,0.394,2.131
							c0,3.34-2.707,6.047-6.047,6.047c-3.339,0-6.047-2.707-6.047-6.047c0-0.751,0.143-1.467,0.394-2.131
							c-1.35-0.831-2.253-2.317-2.253-4.019c0-2.607,2.114-4.72,4.72-4.72c1.23,0,2.346,0.474,3.186,1.244
							c0.84-0.77,1.956-1.244,3.186-1.244c2.607,0,4.72,2.113,4.72,4.72C506.111,939.467,505.208,940.954,503.858,941.785"/>
					</g>
					<g>
						<path style="fill:#FFFFFF;" d="M503.627,937.351c0,1.082-0.879,1.961-1.961,1.961c-1.082,0-1.961-0.879-1.961-1.961
							s0.879-1.961,1.961-1.961c0.22,0,0.428,0.037,0.625,0.102c-0.065,0.135-0.099,0.287-0.099,0.445
							c0,0.595,0.482,1.076,1.077,1.076c0.11,0,0.217-0.017,0.318-0.048C503.613,937.089,503.627,937.218,503.627,937.351"/>
					</g>
					<g>
						<path style="fill:#FFFFFF;" d="M496.201,937.351c0,0.818-0.665,1.482-1.483,1.482c-0.818,0-1.483-0.664-1.483-1.482
							s0.665-1.483,1.483-1.483c0.166,0,0.324,0.027,0.473,0.077c-0.049,0.102-0.075,0.217-0.075,0.337
							c0,0.449,0.364,0.814,0.814,0.814c0.083,0,0.164-0.013,0.241-0.036C496.191,937.153,496.201,937.251,496.201,937.351"/>
					</g>
					<g>
						<g>
							<g>
								<rect x="484.56" y="939.024" style="fill:#FFFFFF;" width="1.34" height="1.34"/>
							</g>
							<g>
								<rect x="510.51" y="939.024" style="fill:#FFFFFF;" width="1.34" height="1.34"/>
							</g>
							<g>
								<path style="fill:#FFFFFF;" d="M511.332,939.572h-0.304c0-7.07-5.752-12.823-12.823-12.823
									c-7.07,0-12.823,5.753-12.823,12.823h-0.305c0-3.506,1.365-6.803,3.845-9.282c2.479-2.48,5.776-3.845,9.282-3.845
									c3.507,0,6.803,1.365,9.283,3.845C509.966,932.769,511.332,936.065,511.332,939.572"/>
							</g>
						</g>
						<g>
							<rect x="497.534" y="925.927" style="fill:#FFFFFF;" width="1.34" height="1.34"/>
						</g>
						<g>
							<rect x="489.006" y="926.445" style="fill:#FFFFFF;" width="18.397" height="0.304"/>
						</g>
						<g>
							<path style="fill:#FFFFFF;" d="M489.494,926.658c0,0.235-0.191,0.427-0.427,0.427c-0.235,0-0.426-0.191-0.426-0.427
								s0.191-0.427,0.426-0.427C489.303,926.231,489.494,926.422,489.494,926.658"/>
						</g>
						<g>
							<path style="fill:#FFFFFF;" d="M507.829,926.658c0,0.235-0.191,0.427-0.427,0.427c-0.235,0-0.426-0.191-0.426-0.427
								s0.191-0.427,0.426-0.427C507.639,926.231,507.829,926.422,507.829,926.658"/>
						</g>
					</g>
				</g>
				<g>
					<path style="fill:#FFFFFF;" d="M640.109,951.171c0,3.395-5.146,3.395-5.146,0C634.963,947.779,640.109,947.779,640.109,951.171
						z"/>
				</g>
				<g>
					<g>
						<g>
							<path style="fill:#FFFFFF;" d="M307.849,936.236l3.859,13.253l4.038-13.253h4.823l-6.145,17.721h-5.073l-1.822-5.216
								l-1.572-5.896l-1.571,5.896l-1.822,5.216h-5.073l-6.18-17.721h4.858l4.038,13.253l3.822-13.253H307.849z"/>
						</g>
						<g>
							<path style="fill:#FFFFFF;" d="M340.449,936.236l3.859,13.253l4.038-13.253h4.823l-6.145,17.721h-5.073l-1.822-5.216
								l-1.571-5.896l-1.572,5.896l-1.822,5.216h-5.073l-6.18-17.721h4.858l4.038,13.253l3.822-13.253H340.449z"/>
						</g>
						<g>
							<path style="fill:#FFFFFF;" d="M373.048,936.236l3.859,13.253l4.038-13.253h4.823l-6.145,17.721h-5.073l-1.822-5.216
								l-1.572-5.896l-1.571,5.896l-1.822,5.216h-5.073l-6.18-17.721h4.858l4.038,13.253l3.822-13.253H373.048z"/>
						</g>
					</g>
					<g>
						<path style="fill:#FFFFFF;" d="M393.123,951.412c0,3.395-5.146,3.395-5.146,0C387.977,948.02,393.123,948.02,393.123,951.412z
							"/>
					</g>
					<g>
						<path style="fill:#FFFFFF;" d="M658.296,951.171c-2.036,2.001-4.177,2.787-6.787,2.787c-5.108,0-9.361-3.072-9.361-9.323
							c0-6.251,4.253-9.326,9.361-9.326c2.502,0,4.43,0.716,6.359,2.609l-2.752,2.894c-1.036-0.931-2.321-1.393-3.534-1.393
							c-2.929,0-5.073,2.144-5.073,5.216c0,3.357,2.286,5.143,5,5.143c1.393,0,2.787-0.393,3.857-1.463L658.296,951.171z"/>
					</g>
					<g>
						<path style="fill:#FFFFFF;" d="M678.097,944.777c0,5.073-3.465,9.181-9.181,9.181c-5.716,0-9.146-4.107-9.146-9.181
							c0-5.038,3.502-9.181,9.111-9.181S678.097,939.739,678.097,944.777z M664.128,944.777c0,2.679,1.609,5.181,4.788,5.181
							c3.179,0,4.788-2.502,4.788-5.181c0-2.644-1.859-5.216-4.788-5.216C665.772,939.561,664.128,942.133,664.128,944.777z"/>
					</g>
					<g>
						<path style="fill:#FFFFFF;" d="M692.828,953.958v-9.431c0-2.324-1.216-4.43-3.61-4.43c-2.356,0-3.75,2.106-3.75,4.43v9.431
							h-4.36v-17.649h4.038l0.323,2.144c0.928-1.786,2.964-2.429,4.643-2.429c2.109,0,4.218,0.858,5.216,3.287
							c1.574-2.502,3.61-3.217,5.896-3.217c5,0,7.467,3.075,7.467,8.36v9.504h-4.361v-9.504c0-2.321-0.963-4.288-3.322-4.288
							c-2.356,0-3.822,2.036-3.822,4.36v9.431H692.828z"/>
					</g>
				</g>
			</g>
		</g>
		<g style="opacity:0.61;">
			<g>
				<g>
					<path style="fill:#FFFFFF;" d="M708.973,859.493c-0.013-2.665-2.087-4.618-4.766-4.659c-2.011-0.031-1.81,0.261-1.815-1.887
						c-0.006-2.389-0.015-4.778,0.006-7.166c0.007-0.824-0.243-1.505-0.787-2.125c-5.098-5.81-10.184-11.63-15.281-17.441
						c-0.262-0.299-0.599-0.532-0.901-0.796c-13.528,0-27.055,0-40.583,0c-1.729,0.639-2.482,1.889-2.478,3.72
						c0.021,8.159,0.009,16.318,0.008,24.478c0,1.21-0.007,1.281-1.197,1.201c-3.258-0.221-5.477,2.147-5.436,5.426
						c0.096,7.568,0.028,15.137,0.031,22.706c0.001,3.44,1.887,5.32,5.333,5.331c1.267,0.004,1.268,0.004,1.268,1.306
						c0.001,4.831-0.002,9.662,0.002,14.493c0.002,2.595,1.262,3.855,3.85,3.855c17.446,0.001,34.891,0.001,52.337,0
						c2.543,0,3.822-1.268,3.824-3.799c0.005-4.912,0.001-9.823,0.003-14.735c0-1.115,0.005-1.112,1.131-1.121
						c0.589-0.005,1.177,0.017,1.761-0.127c2.169-0.535,3.68-2.273,3.689-4.503C709.007,875.597,709.011,867.545,708.973,859.493z
						 M647.034,828.716c11.619-0.001,23.237-0.001,34.856,0c1.193,0,1.206,0.015,1.207,1.222c0.001,4.884-0.002,9.767,0.002,14.651
						c0.001,1.765,0.543,2.305,2.307,2.306c4.159,0.003,8.318,0,12.477,0.003c0.997,0.001,1.044,0.046,1.046,1.052
						c0.006,1.932,0.005,3.864,0,5.796c-0.003,1.038-0.051,1.085-1.098,1.085c-8.479,0.002-16.958,0.001-25.438,0.001
						c-8.452,0-16.905,0-25.357,0c-1.198,0-1.202-0.003-1.202-1.221c-0.001-7.889-0.001-15.778,0-23.667
						C645.835,828.724,645.844,828.716,647.034,828.716z M697.728,903.645c-8.454,0.001-16.908,0.001-25.362,0.001
						c-8.427,0-16.854,0.001-25.281,0c-1.245,0-1.249-0.003-1.249-1.262c-0.001-4.348-0.003-8.696,0.001-13.043
						c0.001-1.01,0.051-1.059,1.041-1.059c16.989-0.002,33.977-0.002,50.966,0c1.041,0,1.086,0.044,1.087,1.094
						c0.003,4.348,0.003,8.696,0.001,13.043C698.931,903.634,698.92,903.645,697.728,903.645z"/>
				</g>
				<g>
					<g>
						<rect x="668.546" y="828.478" style="fill:#FFFFFF;" width="3.825" height="2.295"/>
					</g>
					<g>
						<rect x="664.722" y="830.773" style="fill:#FFFFFF;" width="3.825" height="2.295"/>
					</g>
					<g>
						<rect x="668.546" y="833.068" style="fill:#FFFFFF;" width="3.825" height="2.295"/>
					</g>
					<g>
						<rect x="664.722" y="835.363" style="fill:#FFFFFF;" width="3.825" height="2.295"/>
					</g>
					<g>
						<rect x="668.546" y="837.658" style="fill:#FFFFFF;" width="3.825" height="2.295"/>
					</g>
					<g>
						<rect x="664.722" y="839.953" style="fill:#FFFFFF;" width="3.825" height="2.295"/>
					</g>
					<g>
						<rect x="668.546" y="842.247" style="fill:#FFFFFF;" width="3.825" height="2.295"/>
					</g>
					<g>
						<rect x="664.722" y="844.542" style="fill:#FFFFFF;" width="3.825" height="2.295"/>
					</g>
					<g>
						<rect x="668.546" y="846.837" style="fill:#FFFFFF;" width="3.825" height="2.295"/>
					</g>
					<g>
						<rect x="664.722" y="849.132" style="fill:#FFFFFF;" width="3.825" height="2.295"/>
					</g>
					<g>
						<rect x="668.546" y="851.427" style="fill:#FFFFFF;" width="3.825" height="2.295"/>
					</g>
					<g>
						<rect x="664.722" y="853.722" style="fill:#FFFFFF;" width="3.825" height="2.295"/>
					</g>
				</g>
			</g>
			<g>
				<path style="fill:#FFFFFF;" d="M364.231,859.493c-0.013-2.665-2.087-4.618-4.766-4.659c-2.011-0.031-1.81,0.261-1.815-1.887
					c-0.006-2.389-0.015-4.778,0.006-7.166c0.007-0.824-0.243-1.505-0.787-2.125c-5.098-5.81-10.184-11.63-15.281-17.441
					c-0.262-0.299-0.599-0.532-0.901-0.796c-13.528,0-27.055,0-40.583,0c-1.729,0.639-2.482,1.889-2.478,3.72
					c0.021,8.159,0.009,16.318,0.008,24.478c0,1.21-0.007,1.281-1.197,1.201c-3.258-0.221-5.477,2.147-5.436,5.426
					c0.096,7.568,0.028,15.137,0.031,22.706c0.001,3.44,1.887,5.32,5.333,5.331c1.267,0.004,1.268,0.004,1.268,1.306
					c0.001,4.831-0.002,9.662,0.002,14.493c0.002,2.595,1.262,3.855,3.85,3.855c17.446,0.001,34.891,0.001,52.337,0
					c2.543,0,3.822-1.268,3.824-3.799c0.005-4.912,0.001-9.823,0.003-14.735c0-1.115,0.004-1.112,1.131-1.121
					c0.589-0.005,1.177,0.017,1.761-0.127c2.169-0.535,3.68-2.273,3.689-4.503C364.264,875.597,364.269,867.545,364.231,859.493z
					 M302.292,828.716c11.619-0.001,23.237-0.001,34.856,0c1.192,0,1.206,0.015,1.207,1.222c0.001,4.884-0.001,9.767,0.002,14.651
					c0.001,1.765,0.543,2.305,2.307,2.306c4.159,0.003,8.318,0,12.477,0.003c0.997,0.001,1.044,0.046,1.046,1.052
					c0.006,1.932,0.005,3.864,0,5.796c-0.003,1.038-0.051,1.085-1.098,1.085c-8.479,0.002-16.958,0.001-25.438,0.001
					c-8.452,0-16.905,0-25.357,0c-1.198,0-1.202-0.003-1.202-1.221c-0.001-7.889-0.001-15.778,0-23.667
					C301.093,828.724,301.102,828.716,302.292,828.716z M352.985,903.645c-8.454,0.001-16.908,0.001-25.362,0.001
					c-8.427,0-16.854,0.001-25.281,0c-1.245,0-1.249-0.003-1.249-1.262c-0.001-4.348-0.003-8.696,0.001-13.043
					c0.001-1.01,0.051-1.059,1.041-1.059c16.989-0.002,33.977-0.002,50.966,0c1.041,0,1.086,0.044,1.087,1.094
					c0.003,4.348,0.003,8.696,0.001,13.043C354.188,903.634,354.177,903.645,352.985,903.645z"/>
			</g>
			<g>
				<path style="fill:#FFFFFF;" d="M303.581,879.891v-17.193h6.051c0.816,0,1.581,0.132,2.293,0.396
					c0.712,0.264,1.333,0.636,1.861,1.117c0.527,0.48,0.944,1.053,1.248,1.717c0.304,0.665,0.456,1.397,0.456,2.198
					c0,0.816-0.152,1.557-0.456,2.221s-0.721,1.236-1.248,1.717c-0.529,0.48-1.149,0.852-1.861,1.117
					c-0.713,0.264-1.477,0.396-2.293,0.396h-2.809v6.315H303.581z M309.68,870.503c0.848,0,1.489-0.241,1.921-0.721
					c0.432-0.48,0.648-1.032,0.648-1.656c0-0.304-0.052-0.601-0.156-0.889c-0.105-0.288-0.264-0.54-0.48-0.756
					c-0.216-0.217-0.484-0.388-0.805-0.516c-0.32-0.129-0.696-0.193-1.128-0.193h-2.857v4.731H309.68z"/>
				<path style="fill:#FFFFFF;" d="M317.796,862.699h3.77l6.916,11.526h0.191l-0.191-3.314v-8.212h3.217v17.193h-3.409l-7.3-12.174
					h-0.191l0.191,3.314v8.86h-3.193V862.699z"/>
				<path style="fill:#FFFFFF;" d="M343.08,870.454h8.429c0.048,0.193,0.087,0.425,0.12,0.697c0.031,0.272,0.048,0.544,0.048,0.816
					c0,1.104-0.167,2.145-0.504,3.121c-0.336,0.977-0.865,1.849-1.585,2.618c-0.768,0.817-1.69,1.449-2.761,1.897
					c-1.073,0.448-2.298,0.672-3.674,0.672c-1.249,0-2.426-0.224-3.53-0.672c-1.104-0.447-2.065-1.072-2.881-1.873
					c-0.816-0.8-1.465-1.749-1.945-2.845c-0.48-1.097-0.72-2.293-0.72-3.59c0-1.296,0.24-2.493,0.72-3.589s1.129-2.045,1.945-2.845
					c0.816-0.8,1.777-1.425,2.881-1.873c1.104-0.448,2.281-0.672,3.53-0.672c1.392,0,2.637,0.24,3.734,0.72
					c1.097,0.48,2.036,1.144,2.821,1.993l-2.232,2.185c-0.562-0.592-1.185-1.044-1.874-1.357s-1.513-0.468-2.473-0.468
					c-0.786,0-1.53,0.14-2.234,0.421c-0.705,0.28-1.321,0.676-1.85,1.188c-0.527,0.512-0.949,1.133-1.259,1.861
					c-0.312,0.728-0.469,1.541-0.469,2.437c0,0.897,0.157,1.709,0.469,2.438c0.311,0.728,0.735,1.349,1.271,1.861
					c0.536,0.512,1.156,0.909,1.862,1.188c0.704,0.281,1.457,0.421,2.258,0.421c0.911,0,1.684-0.132,2.317-0.396
					c0.632-0.264,1.171-0.604,1.62-1.021c0.321-0.288,0.598-0.652,0.829-1.092s0.412-0.932,0.541-1.477h-5.404V870.454z"/>
			</g>
			<g>
				<path style="fill:#FFFFFF;" d="M443.437,859.493c-0.013-2.665-2.087-4.618-4.766-4.659c-2.011-0.031-1.81,0.261-1.815-1.887
					c-0.006-2.389-0.015-4.778,0.006-7.166c0.007-0.824-0.243-1.505-0.787-2.125c-5.098-5.81-10.184-11.63-15.281-17.441
					c-0.262-0.299-0.599-0.532-0.901-0.796c-13.528,0-27.055,0-40.583,0c-1.729,0.639-2.482,1.889-2.478,3.72
					c0.021,8.159,0.009,16.318,0.008,24.478c0,1.21-0.007,1.281-1.197,1.201c-3.258-0.221-5.477,2.147-5.436,5.426
					c0.096,7.568,0.028,15.137,0.031,22.706c0.001,3.44,1.887,5.32,5.333,5.331c1.267,0.004,1.268,0.004,1.268,1.306
					c0.001,4.831-0.002,9.662,0.002,14.493c0.002,2.595,1.262,3.855,3.85,3.855c17.446,0.001,34.891,0.001,52.337,0
					c2.543,0,3.822-1.268,3.824-3.799c0.005-4.912,0.001-9.823,0.003-14.735c0-1.115,0.004-1.112,1.131-1.121
					c0.589-0.005,1.177,0.017,1.761-0.127c2.169-0.535,3.68-2.273,3.689-4.503C443.47,875.597,443.475,867.545,443.437,859.493z
					 M381.498,828.716c11.619-0.001,23.237-0.001,34.856,0c1.192,0,1.206,0.015,1.207,1.222c0.001,4.884-0.001,9.767,0.002,14.651
					c0.001,1.765,0.543,2.305,2.307,2.306c4.159,0.003,8.318,0,12.477,0.003c0.997,0.001,1.044,0.046,1.046,1.052
					c0.006,1.932,0.005,3.864,0,5.796c-0.003,1.038-0.051,1.085-1.098,1.085c-8.479,0.002-16.958,0.001-25.438,0.001
					c-8.452,0-16.905,0-25.357,0c-1.198,0-1.202-0.003-1.202-1.221c-0.001-7.889-0.001-15.778,0-23.667
					C380.299,828.724,380.308,828.716,381.498,828.716z M432.192,903.645c-8.454,0.001-16.908,0.001-25.362,0.001
					c-8.427,0-16.854,0.001-25.281,0c-1.245,0-1.249-0.003-1.249-1.262c-0.001-4.348-0.002-8.696,0.001-13.043
					c0.001-1.01,0.051-1.059,1.041-1.059c16.989-0.002,33.977-0.002,50.966,0c1.041,0,1.086,0.044,1.087,1.094
					c0.003,4.348,0.003,8.696,0.001,13.043C433.394,903.634,433.384,903.645,432.192,903.645z"/>
			</g>
			<g>
				<path style="fill:#FFFFFF;" d="M402.272,862.699h3.698l6.46,17.193h-3.578l-1.416-4.106h-6.628l-1.417,4.106h-3.578
					L402.272,862.699z M406.379,872.808l-1.537-4.298l-0.625-2.089h-0.192l-0.625,2.089l-1.537,4.298H406.379z"/>
				<path style="fill:#FFFFFF;" d="M415.815,866.541c-0.273,0-0.533-0.052-0.781-0.156c-0.248-0.104-0.465-0.248-0.648-0.432
					c-0.184-0.184-0.328-0.396-0.432-0.636c-0.105-0.241-0.156-0.504-0.156-0.793s0.052-0.552,0.156-0.793
					c0.104-0.24,0.248-0.452,0.432-0.636c0.184-0.184,0.4-0.328,0.648-0.432c0.248-0.104,0.508-0.156,0.781-0.156
					c0.56,0,1.041,0.196,1.441,0.588c0.4,0.393,0.601,0.869,0.601,1.429c0,0.56-0.201,1.037-0.601,1.428
					C416.856,866.345,416.375,866.541,415.815,866.541z M414.255,879.891v-11.766h3.145v11.766H414.255z"/>
			</g>
			<g>
				<path style="fill:#FFFFFF;" d="M524.043,859.493c-0.013-2.665-2.087-4.618-4.766-4.659c-2.011-0.031-1.81,0.261-1.815-1.887
					c-0.006-2.389-0.015-4.778,0.006-7.166c0.007-0.824-0.243-1.505-0.787-2.125c-5.098-5.81-10.184-11.63-15.281-17.441
					c-0.262-0.299-0.599-0.532-0.901-0.796c-13.528,0-27.055,0-40.583,0c-1.729,0.639-2.482,1.889-2.478,3.72
					c0.021,8.159,0.009,16.318,0.008,24.478c0,1.21-0.007,1.281-1.197,1.201c-3.258-0.221-5.477,2.147-5.436,5.426
					c0.096,7.568,0.028,15.137,0.031,22.706c0.001,3.44,1.887,5.32,5.333,5.331c1.267,0.004,1.268,0.004,1.268,1.306
					c0.001,4.831-0.002,9.662,0.002,14.493c0.002,2.595,1.262,3.855,3.85,3.855c17.446,0.001,34.891,0.001,52.337,0
					c2.543,0,3.822-1.268,3.824-3.799c0.005-4.912,0.001-9.823,0.003-14.735c0-1.115,0.004-1.112,1.131-1.121
					c0.589-0.005,1.177,0.017,1.761-0.127c2.169-0.535,3.68-2.273,3.689-4.503C524.076,875.597,524.081,867.545,524.043,859.493z
					 M462.104,828.716c11.619-0.001,23.237-0.001,34.856,0c1.192,0,1.206,0.015,1.207,1.222c0.001,4.884-0.001,9.767,0.002,14.651
					c0.001,1.765,0.543,2.305,2.307,2.306c4.159,0.003,8.318,0,12.477,0.003c0.997,0.001,1.044,0.046,1.046,1.052
					c0.006,1.932,0.005,3.864,0,5.796c-0.003,1.038-0.051,1.085-1.098,1.085c-8.479,0.002-16.958,0.001-25.438,0.001
					c-8.452,0-16.905,0-25.357,0c-1.198,0-1.202-0.003-1.202-1.221c-0.001-7.889-0.001-15.778,0-23.667
					C460.905,828.724,460.914,828.716,462.104,828.716z M512.798,903.645c-8.454,0.001-16.908,0.001-25.362,0.001
					c-8.427,0-16.854,0.001-25.281,0c-1.245,0-1.249-0.003-1.249-1.262c-0.001-4.348-0.002-8.696,0.001-13.043
					c0.001-1.01,0.051-1.059,1.041-1.059c16.989-0.002,33.977-0.002,50.966,0c1.041,0,1.086,0.044,1.087,1.094
					c0.003,4.348,0.003,8.696,0.001,13.043C514,903.634,513.989,903.645,512.798,903.645z"/>
			</g>
			<g>
				<path style="fill:#FFFFFF;" d="M470.308,880.275c-0.737,0-1.441-0.104-2.113-0.312c-0.672-0.208-1.289-0.52-1.849-0.936
					c-0.56-0.416-1.048-0.925-1.464-1.525c-0.417-0.601-0.745-1.301-0.985-2.101l3.049-1.2c0.224,0.864,0.616,1.581,1.177,2.149
					s1.297,0.852,2.209,0.852c0.336,0,0.66-0.044,0.973-0.132c0.312-0.087,0.592-0.216,0.84-0.384
					c0.248-0.168,0.444-0.38,0.589-0.636c0.144-0.256,0.216-0.552,0.216-0.888c0-0.32-0.056-0.608-0.168-0.865
					c-0.112-0.255-0.3-0.495-0.564-0.72c-0.264-0.224-0.609-0.44-1.033-0.648c-0.424-0.208-0.948-0.424-1.572-0.648l-1.056-0.384
					c-0.465-0.16-0.933-0.376-1.405-0.648c-0.472-0.272-0.9-0.6-1.284-0.985c-0.385-0.384-0.701-0.836-0.949-1.357
					c-0.249-0.52-0.372-1.108-0.372-1.765c0-0.672,0.132-1.301,0.396-1.885c0.264-0.584,0.64-1.096,1.129-1.537
					c0.488-0.44,1.072-0.784,1.753-1.032c0.681-0.248,1.437-0.372,2.269-0.372c0.864,0,1.612,0.116,2.245,0.348
					c0.633,0.232,1.168,0.528,1.609,0.888c0.44,0.36,0.796,0.757,1.068,1.188c0.272,0.433,0.472,0.84,0.601,1.225l-2.857,1.2
					c-0.161-0.48-0.453-0.913-0.876-1.297c-0.425-0.384-1.005-0.576-1.741-0.576c-0.704,0-1.289,0.164-1.753,0.492
					c-0.465,0.329-0.697,0.757-0.697,1.285c0,0.512,0.224,0.949,0.672,1.309c0.448,0.36,1.161,0.708,2.137,1.044l1.081,0.36
					c0.688,0.241,1.316,0.517,1.885,0.828c0.568,0.312,1.056,0.684,1.465,1.117c0.408,0.433,0.72,0.925,0.936,1.477
					c0.217,0.552,0.324,1.189,0.324,1.909c0,0.897-0.18,1.669-0.54,2.317c-0.36,0.648-0.82,1.181-1.38,1.597
					c-0.561,0.416-1.193,0.728-1.897,0.936C471.668,880.172,470.98,880.275,470.308,880.275z"/>
				<path style="fill:#FFFFFF;" d="M477.175,862.699h3.506l3.554,10.349l0.625,2.209h0.192l0.672-2.209l3.698-10.349h3.506
					l-6.268,17.193h-3.409L477.175,862.699z"/>
				<path style="fill:#FFFFFF;" d="M502.388,870.454h8.428c0.048,0.193,0.088,0.425,0.12,0.697c0.033,0.272,0.049,0.544,0.049,0.816
					c0,1.104-0.169,2.145-0.505,3.121c-0.336,0.977-0.864,1.849-1.585,2.618c-0.768,0.817-1.688,1.449-2.761,1.897
					c-1.073,0.448-2.298,0.672-3.674,0.672c-1.249,0-2.425-0.224-3.529-0.672c-1.105-0.447-2.066-1.072-2.882-1.873
					c-0.816-0.8-1.465-1.749-1.945-2.845c-0.48-1.097-0.72-2.293-0.72-3.59c0-1.296,0.241-2.493,0.72-3.589
					c0.48-1.097,1.129-2.045,1.945-2.845c0.816-0.8,1.777-1.425,2.882-1.873c1.104-0.448,2.28-0.672,3.529-0.672
					c1.392,0,2.637,0.24,3.734,0.72c1.097,0.48,2.038,1.144,2.822,1.993l-2.234,2.185c-0.56-0.592-1.185-1.044-1.874-1.357
					c-0.687-0.312-1.512-0.468-2.473-0.468c-0.784,0-1.528,0.14-2.234,0.421c-0.704,0.28-1.321,0.676-1.848,1.188
					c-0.528,0.512-0.949,1.133-1.261,1.861c-0.312,0.728-0.468,1.541-0.468,2.437c0,0.897,0.156,1.709,0.468,2.438
					c0.312,0.728,0.737,1.349,1.273,1.861c0.536,0.512,1.156,0.909,1.86,1.188c0.705,0.281,1.457,0.421,2.258,0.421
					c0.913,0,1.685-0.132,2.317-0.396c0.632-0.264,1.173-0.604,1.621-1.021c0.32-0.288,0.596-0.652,0.828-1.092
					c0.233-0.44,0.412-0.932,0.541-1.477h-5.402V870.454z"/>
			</g>
			<g>
				<path style="fill:#FFFFFF;" d="M602.976,859.493c-0.013-2.665-2.087-4.618-4.766-4.659c-2.011-0.031-1.81,0.261-1.815-1.887
					c-0.006-2.389-0.015-4.778,0.006-7.166c0.007-0.824-0.243-1.505-0.787-2.125c-5.098-5.81-10.184-11.63-15.281-17.441
					c-0.262-0.299-0.599-0.532-0.901-0.796c-13.528,0-27.055,0-40.583,0c-1.729,0.639-2.482,1.889-2.478,3.72
					c0.021,8.159,0.009,16.318,0.008,24.478c0,1.21-0.007,1.281-1.197,1.201c-3.258-0.221-5.477,2.147-5.436,5.426
					c0.096,7.568,0.028,15.137,0.031,22.706c0.001,3.44,1.887,5.32,5.333,5.331c1.267,0.004,1.268,0.004,1.268,1.306
					c0.001,4.831-0.002,9.662,0.002,14.493c0.002,2.595,1.262,3.855,3.85,3.855c17.446,0.001,34.891,0.001,52.337,0
					c2.543,0,3.822-1.268,3.824-3.799c0.005-4.912,0.001-9.823,0.003-14.735c0-1.115,0.005-1.112,1.131-1.121
					c0.589-0.005,1.178,0.017,1.761-0.127c2.169-0.535,3.68-2.273,3.689-4.503C603.01,875.597,603.015,867.545,602.976,859.493z
					 M541.037,828.716c11.619-0.001,23.237-0.001,34.856,0c1.193,0,1.206,0.015,1.207,1.222c0.001,4.884-0.002,9.767,0.002,14.651
					c0.001,1.765,0.543,2.305,2.307,2.306c4.159,0.003,8.318,0,12.477,0.003c0.997,0.001,1.044,0.046,1.046,1.052
					c0.006,1.932,0.005,3.864,0,5.796c-0.003,1.038-0.051,1.085-1.098,1.085c-8.479,0.002-16.958,0.001-25.438,0.001
					c-8.452,0-16.905,0-25.357,0c-1.198,0-1.202-0.003-1.202-1.221c-0.001-7.889-0.001-15.778,0-23.667
					C539.838,828.724,539.847,828.716,541.037,828.716z M591.731,903.645c-8.454,0.001-16.908,0.001-25.362,0.001
					c-8.427,0-16.854,0.001-25.281,0c-1.245,0-1.249-0.003-1.249-1.262c-0.001-4.348-0.003-8.696,0.001-13.043
					c0.001-1.01,0.051-1.059,1.041-1.059c16.989-0.002,33.977-0.002,50.966,0c1.041,0,1.086,0.044,1.087,1.094
					c0.003,4.348,0.003,8.696,0.001,13.043C592.934,903.634,592.923,903.645,591.731,903.645z"/>
			</g>
			<g>
				<path style="fill:#FFFFFF;" d="M549.998,865.772v3.986h6.891v3.074h-6.891v3.986h7.659v3.073h-10.901v-17.193h10.901v3.073
					H549.998z"/>
				<path style="fill:#FFFFFF;" d="M560.635,879.891v-17.193h6.051c0.816,0,1.581,0.132,2.293,0.396
					c0.712,0.264,1.333,0.636,1.861,1.117c0.528,0.48,0.944,1.053,1.249,1.717c0.304,0.665,0.456,1.397,0.456,2.198
					c0,0.816-0.152,1.557-0.456,2.221c-0.305,0.664-0.721,1.236-1.249,1.717c-0.528,0.48-1.149,0.852-1.861,1.117
					c-0.713,0.264-1.477,0.396-2.293,0.396h-2.809v6.315H560.635z M566.735,870.503c0.848,0,1.489-0.241,1.921-0.721
					c0.432-0.48,0.648-1.032,0.648-1.656c0-0.304-0.052-0.601-0.156-0.889c-0.105-0.288-0.264-0.54-0.48-0.756
					c-0.216-0.217-0.484-0.388-0.805-0.516c-0.32-0.129-0.696-0.193-1.128-0.193h-2.857v4.731H566.735z"/>
				<path style="fill:#FFFFFF;" d="M580.109,880.275c-0.737,0-1.441-0.104-2.113-0.312c-0.672-0.208-1.289-0.52-1.849-0.936
					c-0.56-0.416-1.049-0.925-1.465-1.525c-0.416-0.601-0.744-1.301-0.985-2.101l3.049-1.2c0.224,0.864,0.616,1.581,1.177,2.149
					c0.56,0.568,1.296,0.852,2.209,0.852c0.336,0,0.66-0.044,0.973-0.132c0.312-0.087,0.592-0.216,0.84-0.384
					c0.248-0.168,0.444-0.38,0.588-0.636c0.144-0.256,0.217-0.552,0.217-0.888c0-0.32-0.057-0.608-0.168-0.865
					c-0.112-0.255-0.3-0.495-0.565-0.72c-0.264-0.224-0.608-0.44-1.032-0.648c-0.424-0.208-0.949-0.424-1.573-0.648l-1.056-0.384
					c-0.465-0.16-0.932-0.376-1.404-0.648c-0.473-0.272-0.901-0.6-1.285-0.985c-0.384-0.384-0.701-0.836-0.949-1.357
					c-0.248-0.52-0.372-1.108-0.372-1.765c0-0.672,0.132-1.301,0.396-1.885c0.264-0.584,0.64-1.096,1.129-1.537
					c0.489-0.44,1.073-0.784,1.753-1.032c0.68-0.248,1.437-0.372,2.269-0.372c0.865,0,1.613,0.116,2.246,0.348
					c0.632,0.232,1.168,0.528,1.609,0.888c0.44,0.36,0.796,0.757,1.068,1.188c0.272,0.433,0.472,0.84,0.601,1.225l-2.857,1.2
					c-0.161-0.48-0.453-0.913-0.877-1.297s-1.005-0.576-1.741-0.576c-0.705,0-1.289,0.164-1.753,0.492
					c-0.465,0.329-0.696,0.757-0.696,1.285c0,0.512,0.224,0.949,0.672,1.309c0.448,0.36,1.16,0.708,2.137,1.044l1.08,0.36
					c0.689,0.241,1.317,0.517,1.885,0.828c0.568,0.312,1.056,0.684,1.465,1.117c0.408,0.433,0.72,0.925,0.936,1.477
					c0.216,0.552,0.324,1.189,0.324,1.909c0,0.897-0.18,1.669-0.54,2.317c-0.36,0.648-0.821,1.181-1.38,1.597
					c-0.561,0.416-1.193,0.728-1.897,0.936C581.47,880.172,580.782,880.275,580.109,880.275z"/>
			</g>
			<g>
				<path style="fill:#FFFFFF;" d="M655.431,876.625l8.716-10.854h-8.332v-3.073h12.103v3.266l-8.621,10.854h8.716v3.073h-12.582
					V876.625z"/>
				<path style="fill:#FFFFFF;" d="M670.702,862.699h3.242v17.193h-3.242V862.699z"/>
				<path style="fill:#FFFFFF;" d="M677.402,879.891v-17.193h6.051c0.817,0,1.581,0.132,2.293,0.396
					c0.712,0.264,1.333,0.636,1.861,1.117s0.944,1.053,1.249,1.717c0.304,0.665,0.456,1.397,0.456,2.198
					c0,0.816-0.152,1.557-0.456,2.221c-0.305,0.664-0.721,1.236-1.249,1.717s-1.149,0.852-1.861,1.117
					c-0.713,0.264-1.477,0.396-2.293,0.396h-2.809v6.315H677.402z M683.501,870.503c0.848,0,1.489-0.241,1.921-0.721
					c0.433-0.48,0.648-1.032,0.648-1.656c0-0.304-0.052-0.601-0.156-0.889c-0.105-0.288-0.264-0.54-0.48-0.756
					c-0.216-0.217-0.484-0.388-0.805-0.516c-0.32-0.129-0.696-0.193-1.128-0.193h-2.857v4.731H683.501z"/>
			</g>
		</g>
		<g style="opacity:0.61;">
			<path style="fill:#FFFFFF;" d="M609.144,863.785h19.739v4.881h-19.739V863.785z M609.144,872.201h19.739v4.884h-19.739V872.201z"
				/>
		</g>
	</g>
	<g style="opacity:0.61;">
		<path style="fill:#FFFFFF;" d="M297,963.076h3.498c2.75,0,4.603,1.768,4.603,4.297s-1.854,4.296-4.603,4.296H297V963.076z
			 M300.449,970.883c2.283,0,3.756-1.448,3.756-3.51s-1.473-3.511-3.756-3.511h-2.541v7.021H300.449z"/>
		<path style="fill:#FFFFFF;" d="M315.251,967.373c0-2.504,1.915-4.37,4.517-4.37c2.577,0,4.505,1.853,4.505,4.37
			c0,2.516-1.927,4.369-4.505,4.369C317.166,971.742,315.251,969.877,315.251,967.373z M323.365,967.373
			c0-2.05-1.534-3.56-3.596-3.56c-2.075,0-3.621,1.51-3.621,3.56c0,2.049,1.546,3.559,3.621,3.559
			C321.831,970.932,323.365,969.422,323.365,967.373z"/>
		<path style="fill:#FFFFFF;" d="M346.724,963.076l-2.897,8.593h-0.957l-2.516-7.328l-2.529,7.328h-0.945l-2.897-8.593h0.933
			l2.479,7.389l2.566-7.389h0.847l2.529,7.426l2.516-7.426H346.724z"/>
		<path style="fill:#FFFFFF;" d="M364.435,963.076v8.593h-0.749l-5.524-6.972v6.972h-0.908v-8.593h0.749l5.536,6.973v-6.973H364.435
			z"/>
		<path style="fill:#FFFFFF;" d="M376.108,963.076h0.908v7.807h4.812v0.786h-5.72V963.076z"/>
		<path style="fill:#FFFFFF;" d="M391.279,967.373c0-2.504,1.915-4.37,4.517-4.37c2.577,0,4.505,1.853,4.505,4.37
			c0,2.516-1.927,4.369-4.505,4.369C393.194,971.742,391.279,969.877,391.279,967.373z M399.392,967.373
			c0-2.05-1.534-3.56-3.596-3.56c-2.075,0-3.621,1.51-3.621,3.56c0,2.049,1.546,3.559,3.621,3.559
			C397.858,970.932,399.392,969.422,399.392,967.373z"/>
		<path style="fill:#FFFFFF;" d="M416.478,969.374h-4.787l-1.031,2.295h-0.945l3.928-8.593h0.896l3.928,8.593h-0.957
			L416.478,969.374z M416.147,968.637l-2.062-4.615l-2.062,4.615H416.147z"/>
		<path style="fill:#FFFFFF;" d="M428.765,963.076h3.498c2.75,0,4.603,1.768,4.603,4.297s-1.854,4.296-4.603,4.296h-3.498V963.076z
			 M432.214,970.883c2.283,0,3.756-1.448,3.756-3.51s-1.473-3.511-3.756-3.511h-2.541v7.021H432.214z"/>
		<path style="fill:#FFFFFF;" d="M465.256,969.374h-4.787l-1.031,2.295h-0.945l3.928-8.593h0.896l3.928,8.593h-0.957
			L465.256,969.374z M464.925,968.637l-2.062-4.615l-2.062,4.615H464.925z"/>
		<path style="fill:#FFFFFF;" d="M477.543,963.076h0.908v7.807h4.812v0.786h-5.72V963.076z"/>
		<path style="fill:#FFFFFF;" d="M493.647,963.076h0.908v7.807h4.812v0.786h-5.72V963.076z"/>
		<path style="fill:#FFFFFF;" d="M522.749,963.862v3.376h4.443v0.786h-4.443v3.646h-0.909v-8.593h5.891v0.786H522.749z"/>
		<path style="fill:#FFFFFF;" d="M538.485,963.076h0.909v8.593h-0.909V963.076z"/>
		<path style="fill:#FFFFFF;" d="M551.067,963.076h0.909v7.807h4.811v0.786h-5.72V963.076z"/>
		<path style="fill:#FFFFFF;" d="M573.246,970.883v0.786h-6.076v-8.593h5.891v0.786h-4.983v3.056h4.443v0.774h-4.443v3.191H573.246z
			"/>
		<path style="fill:#FFFFFF;" d="M597.255,963.862v3.376h4.443v0.786h-4.443v3.646h-0.909v-8.593h5.891v0.786H597.255z"/>
		<path style="fill:#FFFFFF;" d="M612.119,967.373c0-2.504,1.915-4.37,4.517-4.37c2.577,0,4.505,1.853,4.505,4.37
			c0,2.516-1.927,4.369-4.505,4.369C614.034,971.742,612.119,969.877,612.119,967.373z M620.232,967.373
			c0-2.05-1.534-3.56-3.596-3.56c-2.075,0-3.622,1.51-3.622,3.56c0,2.049,1.547,3.559,3.622,3.559
			C618.698,970.932,620.232,969.422,620.232,967.373z"/>
		<path style="fill:#FFFFFF;" d="M637.919,971.669l-1.963-2.762c-0.222,0.024-0.442,0.037-0.688,0.037h-2.307v2.725h-0.909v-8.593
			h3.216c2.185,0,3.511,1.105,3.511,2.946c0,1.351-0.712,2.295-1.964,2.7l2.099,2.946H637.919z M637.871,966.022
			c0-1.375-0.909-2.161-2.627-2.161h-2.283v4.309h2.283C636.962,968.17,637.871,967.373,637.871,966.022z"/>
		<path style="fill:#FFFFFF;" d="M658.724,963.076v8.593h-0.871v-6.874l-3.376,5.782h-0.429l-3.376-5.745v6.837h-0.872v-8.593h0.749
			l3.732,6.371l3.695-6.371H658.724z"/>
		<path style="fill:#FFFFFF;" d="M675.787,969.374h-4.788l-1.031,2.295h-0.946l3.928-8.593h0.896l3.928,8.593h-0.957
			L675.787,969.374z M675.455,968.637l-2.062-4.615l-2.062,4.615H675.455z"/>
		<path style="fill:#FFFFFF;" d="M689.312,963.862h-3.02v-0.786h6.948v0.786h-3.02v7.807h-0.908V963.862z"/>
		<path style="fill:#FFFFFF;" d="M702.605,970.626l0.356-0.7c0.614,0.601,1.706,1.043,2.835,1.043c1.608,0,2.308-0.675,2.308-1.522
			c0-2.357-5.29-0.908-5.29-4.087c0-1.265,0.982-2.357,3.167-2.357c0.97,0,1.976,0.282,2.664,0.761l-0.307,0.724
			c-0.737-0.479-1.596-0.712-2.357-0.712c-1.571,0-2.271,0.7-2.271,1.559c0,2.357,5.29,0.933,5.29,4.063
			c0,1.265-1.006,2.344-3.204,2.344C704.508,971.742,703.243,971.288,702.605,970.626z"/>
	</g>
</g>
<g>
</g>
<g>
	<path style="fill-rule:evenodd;clip-rule:evenodd;" d="M749.896,468.594c-0.349,2.407-1.899,4.539-4.028,5.584
		c-0.814,0.387-1.66,0.605-2.518,0.643c-0.481,2.965-2.077,5.117-4.738,6.403c-3.054,1.481-7.046,1.63-10.91,1.776
		c-5.08,0.194-12.072,0.629-16.877,2.227c-4.677,6.543,3.435,9.121,7.445,3.527c4.172,1.698,9.974,5.443,6.623,10.419
		c-0.303,0.448-0.616,0.917-0.928,1.542c-0.774,1.538-0.696,3.41-0.615,5.385c0.09,2.038,0.163,4.147-0.628,6.178
		c-0.607,1.522-1.597,2.629-2.935,3.286c-2.07,1-4.537,0.753-6.923,0.518c-1.084-0.11-2.102-0.205-3.037-0.192l-1.22,0.024
		l-0.353-1.17c-0.395-1.318-0.474-2.349-0.533-3.108c-0.049-0.539-0.079-0.905-0.216-1.216c-0.13-0.16-0.255-0.334-0.395-0.507
		c-0.275-0.242-0.679-0.491-1.298-0.827l-0.071-0.031c-0.776-0.424-1.321-0.658-1.695-0.79h-0.001l0.001,0
		c-0.165-2.24-0.531-4.479-1.26-6.667c-0.552-1.606-1.318-3.154-2.274-4.585c-0.956-1.423-2.124-2.703-3.386-3.854
		c-1.252-1.148-2.575-2.172-3.871-3.165c-1.301-1.001-2.581-1.982-3.762-3.037c-1.18-1.045-2.277-2.145-3.158-3.373
		c-0.445-0.596-0.848-1.25-1.161-1.883c-0.344-0.693-0.631-1.399-0.879-2.116c-0.504-1.431-0.799-2.928-0.871-4.443
		c-0.095-1.522,0.061-3.054,0.334-4.589c0.545-3.077,1.748-6.075,2.935-9.112c1.221-3.027,2.505-6.097,3.393-9.321
		c0.871-3.213,1.308-6.644,0.647-9.89c0.058,3.299-0.712,6.48-1.892,9.482c-1.151,3.024-2.656,5.902-4.064,8.891
		c-1.421,2.968-2.755,6.08-3.507,9.45c-0.374,1.685-0.541,3.44-0.473,5.203c0.069,1.761,0.396,3.524,0.957,5.196
		c0.29,0.833,0.628,1.648,1.014,2.426c0.423,0.827,0.894,1.57,1.436,2.286c1.074,1.417,2.326,2.642,3.633,3.726
		c2.639,2.153,5.433,3.894,7.921,5.862c2.462,1.96,4.497,4.42,5.796,7.325c0.95,2.029,1.692,4.37,2.179,6.606l0.014-0.019
		c0.219,0.926,0.421,1.849,0.596,2.783c0.745,3.014,0.956,5.287-2.765,9.103c-0.949,0.97-2.24,1.812-3.478,2.623
		c-0.63,0.409-1.204,0.797-1.724,1.164c-1.054,0.929-2.017,1.948-2.688,3.306c-0.011,0.129-0.014,0.255-0.011,0.382l0.159,3.468
		l-2.754-2.11c-2.349-1.806-3.449-4.35-4.504-6.795c-0.779-1.794-1.474-3.417-2.576-4.63c-1.264,3.356-4.023,6.992-6.035,8.931
		c-0.899,0.87-1.857,1.859-2.779,2.813c-1.505,1.553-3.059,3.165-4.516,4.388l-1.76,1.495l-0.801-2.176
		c-0.427-1.185-0.408-3.067-0.371-5.246c0.005-0.604,0.01-1.375,0.005-2.114l-0.036-0.003l0.031,0.002
		c0.552-1.586,0.906-3.25,1.104-4.921c0.343-3.17,0.126-6.441-0.888-9.553c-0.255-0.773-0.589-1.544-0.943-2.248
		c-0.355-0.725-0.728-1.43-1.123-2.134c-0.796-1.388-1.686-2.732-2.617-4.022c-1.876-2.598-3.983-4.988-6.154-7.302
		c-4.318-4.68-9.288-8.706-14.251-12.578l-7.498-5.715c-1.25-0.96-2.461-1.91-3.69-2.897l-3.683-2.934
		c-4.903-3.868-9.671-7.897-13.282-12.813c-1.816-2.437-3.325-5.101-4.422-7.923c-1.093-2.826-1.794-5.816-2.128-8.854
		c-0.345-3.043-0.306-6.139-0.057-9.225c0.125-1.542,0.319-3.087,0.556-4.623c0.234-1.514,0.593-3.011,1.063-4.473
		c0.922-2.927,2.366-5.715,4.387-8.045c2.016-2.329,4.653-4.147,7.625-5.192c-1.523,0.395-3.003,0.987-4.38,1.774
		c-1.386,0.792-2.656,1.782-3.789,2.911c-2.277,2.277-3.938,5.118-5.082,8.117c-0.578,1.504-1.014,3.064-1.339,4.63
		c-0.319,1.566-0.583,3.135-0.786,4.714c-0.416,3.172-0.528,6.384-0.278,9.606c0.237,3.217,0.879,6.427,2.009,9.485
		c1.114,3.062,2.681,5.951,4.556,8.59c1.889,2.647,4.103,5.02,6.423,7.219c2.329,2.203,4.783,4.229,7.241,6.199l3.711,2.919
		c1.232,0.977,2.491,1.948,3.75,2.905l7.55,5.647c2.516,1.878,4.994,3.775,7.388,5.758c2.39,2,4.698,4.063,6.905,6.258
		c2.206,2.207,4.323,4.479,6.255,6.904c0.952,1.204,1.858,2.461,2.689,3.757c0.816,1.308,1.604,2.65,2.151,4.038
		c1.116,2.819,1.508,5.954,1.381,9.038c-0.061,1.549-0.272,3.096-0.647,4.604c-0.013,0.075-0.154,0.282-0.169,0.352l0.023,0.001
		c-0.095,0.143-0.196,0.283-0.311,0.448c-1.129,1.773-1.781,3.907-2.481,6.17c-0.915,2.962-1.852,6.032-3.985,8.476
		c-1.115,1.265-2.475,2.42-3.792,3.533c-0.524,0.45-1.035,0.881-1.522,1.314c-0.568,0.372-1.185,0.657-1.778,0.973
		c0,0.093-0.023,0.326-0.082,0.922l0.079-0.921c-0.11,0.061-0.283,0.231-0.392,0.286c-0.345,0.171-0.685,0.335-1.028,0.498
		c-1.491,0.684-3.013,1.321-4.558,1.841c-0.776,0.27-1.552,0.504-2.332,0.693c-0.147,0.035-0.296,0.064-0.441,0.098
		c1.385-1.651,2.43-3.602,3.037-5.671c0.817-2.712,0.921-5.566,0.629-8.323c-0.31-2.765-1.011-5.462-2.033-8.027
		c-1.024-2.566-2.332-5.016-3.911-7.297c-0.797-1.143-1.651-2.233-2.608-3.272c-0.934-1.022-1.909-1.964-2.918-2.889
		c-2.017-1.85-4.132-3.548-6.292-5.172c-4.32-3.256-8.82-6.15-13.025-9.336c-4.208-3.187-8.148-6.668-11.267-10.839
		c-0.771-1.031-1.498-2.124-2.152-3.22c-0.667-1.129-1.285-2.274-1.864-3.449c-1.166-2.352-2.129-4.791-2.939-7.297
		c-0.799-2.505-1.467-5.058-1.95-7.653c-0.494-2.596-0.803-5.229-0.959-7.87c-0.29-5.282,0.119-10.639,1.572-15.797
		c-1.924,5.003-2.725,10.428-2.74,15.826c-0.014,2.702,0.192,5.416,0.567,8.094c0.375,2.685,0.919,5.348,1.675,7.961
		c0.739,2.615,1.661,5.178,2.78,7.67c0.562,1.239,1.172,2.484,1.853,3.659c0.705,1.213,1.427,2.363,2.237,3.486
		c1.602,2.237,3.423,4.307,5.384,6.223c1.962,1.906,4.065,3.643,6.206,5.29c4.299,3.295,8.78,6.243,13.038,9.382
		c1.751,1.304,2.923,2.056,6.133,4.962c0.963,0.871,1.902,1.792,2.807,2.719c0.868,0.912,1.685,1.911,2.444,2.947
		c1.507,2.085,2.781,4.362,3.789,6.748c0.993,2.379,1.768,4.864,2.13,7.41c0.372,2.536,0.321,5.131-0.289,7.594
		c-0.601,2.456-1.855,4.742-3.659,6.561l-1.263,1.272l1.759-0.081c0.936-0.044,1.775-0.256,2.592-0.505
		c0.827-0.243,1.616-0.544,2.395-0.861c1.556-0.64,3.061-1.365,4.535-2.172c0.319-0.176,0.65-0.37,0.976-0.56v-0.001
		c0.17,0.701,0.345,1.405,0.525,2.137c0.788,3.096,1.162,6.317,1.518,9.444c0.294,2.474,0.587,5.04,1.094,7.467
		c0.667,3.255,2.953,6.639,5.159,9.917c2.744,4.067,5.58,8.264,5.8,12.735c1.511,0.394,5.071,0.803,6.92,1.021
		c2.217,0.254,3.032,0.36,3.497,0.502c3.536,1.097,4.159,1.431,5.032,3.626c0.203,0.518,0.465,1.171,0.957,2.093
		c0.185,0.351,0.445,0.776,0.716,1.225c0.872,1.413,1.839,3.01,2.149,4.592c0.472,2.441,0.061,4.464-1.223,6.023
		c-1.801,2.187-5.197,3.25-10.388,3.25c-2.088,0-4.091-0.163-5.705-0.295l-0.94-0.073c-1.361-0.107-2.907-0.139-4.531-0.17
		c-3.328-0.058-6.767-0.122-9.585-0.834c-5.656-1.42-6.474-4.695-7.345-8.16c-0.252-1.018-0.507-2.065-0.905-3.193
		c-0.885-2.485-3.142-3.695-5.75-5.101c-2.471-1.325-5.021-2.697-6.627-5.311c-0.749-1.212-1.203-2.393-1.644-3.519
		c-0.634-1.628-1.233-3.162-2.693-4.692c-1.111-1.183-2.361-2.217-3.674-3.315c-1.919-1.607-3.918-3.264-5.511-5.433
		c-3.308-4.493-7.467-10.453-10.391-16.767c-0.294-0.596-0.532-1.239-0.786-1.914l-0.011-0.017
		c-1.556-1.834-3.346-3.415-5.618-4.456c-0.41-0.184-0.833-0.354-1.258-0.509c-0.155,0.019-0.3,0.04-0.446,0.06
		c-0.872,0.113-1.773,0.221-2.666,0.221c-6.321-0.022-11.606-2.167-16.205-6.532c-0.667-0.64-1.26-1.36-1.829-2.069
		c-1.142-1.413-2.001-2.379-2.978-2.737l0.027-0.014l0.025-0.013l0,0l0-0.001c-0.123-0.042-0.265-0.079-0.426-0.11
		c-0.093-0.017-0.193-0.032-0.298-0.043c0.105,0.011,0.205,0.027,0.298,0.043c0.159,0.029,0.299,0.067,0.422,0.109
		c1.109-0.628,2.258-1.171,3.439-1.703c1.368-0.626,2.777-1.22,4.193-1.87c1.409-0.664,2.843-1.389,4.186-2.312
		c2.652-1.807,5.019-4.145,6.689-6.909c1.679-2.765,2.658-5.808,3.136-8.891c-1.535,2.722-3.016,5.387-4.87,7.682
		c-1.84,2.301-4.032,4.236-6.469,5.895c-2.363,1.627-5.191,2.895-7.856,4.545c-1.333,0.827-2.662,1.741-3.82,2.852l0.049,0.024
		c-0.266,0.228-0.603,0.537-1.06,1.004l0.05,0.021c-0.1,0.109-0.198,0.22-0.291,0.336c-1.61,1.386-3.54,4.242-4.38,5.501
		c-0.258,0.382-0.487,0.725-0.684,1.004c-2.154,3.064-3.986,6.46-5.761,9.746c-1.82,3.39-3.719,6.9-5.996,10.139
		c-0.985,1.379-2.003,2.763-2.983,4.098c-2.522,3.406-5.114,6.928-7.111,10.683c-1.527,2.909-2.491,5.553-2.922,8.087
		c-0.485,2.768-0.541,4.194-0.508,4.894c0.474-0.047,0.986-0.083,1.412,0.008c1.648,0.363,2.904,1.589,3.514,2.283
		c0.602,0.7,0.861,1.471,1.034,2.037c0.081,0.238,0.162,0.477,0.236,0.619c0.139,0.041,0.446,0.078,0.664,0.102
		c0.259,0.027,0.548,0.061,0.85,0.126c1.11,0.241,2.162,0.649,3.177,1.041l0.463,0.187c1.914,0.739,4.524,1.746,5.567,3.959
		c1.088,2.271,1.239,4.156,0.458,5.752c-1.329,2.767-5.059,3.635-8.053,4.341c-3.447,0.802-8.694,1.759-14.14,1.759
		c-4.542,0-8.391-0.671-11.445-1.998c-2.43-1.064-6.646-3.308-7.641-6.453c-0.908-2.838,0.373-5.041,1.408-6.807
		c0.374-0.634,0.72-1.239,0.957-1.831c0.42-1.029,0.51-1.528,0.537-1.744c-0.156-0.074-0.384-0.173-0.562-0.258
		c-0.817-0.36-1.929-0.851-3.042-1.994c-2.816-2.908-1.484-8.286-1.193-9.342c0.733-2.6,1.714-4.826,2.653-6.982
		c1.468-3.346,2.852-6.508,3.026-10.589c0.293-6.896,2.132-13.295,3.894-19.484c1.036-3.615,2.101-7.348,2.867-11.171
		c0.542-2.701,0.17-3.664-0.102-3.988c-0.312-0.373-1.027-0.564-2.141-0.564c-0.838,0-1.876,0.106-3.361,0.331
		c-2.33,0.354-5.02,0.525-8.244,0.525c-2.376,0-4.752-0.086-6.863-0.17c-0.759-0.027-1.525-0.041-2.301-0.048
		c-1.985-0.023-4.042-0.048-6.087-0.406c-3.962-0.694-8.172-2.437-12.251-4.128c-2.175-0.9-4.232-1.75-6.186-2.414
		c-1.383-0.472-2.812-1.082-4.328-1.726c-3.421-1.442-6.954-2.941-10.008-2.941l-0.19,0.007c-2.833,0.055-4.333,2.376-6.07,5.07
		c-0.515,0.786-1.036,1.592-1.605,2.355c-1.708,2.298-2.722,4.575-3.369,7.618c-0.316,1.498-0.589,3.02-0.888,4.623
		c-0.987,5.409-2.008,10.992-4.666,15.886c-0.713,1.308-1.507,2.539-2.274,3.731c-2.396,3.679-4.453,6.866-3.562,11.307
		c0.862,4.327,4.849,7.503,8.712,10.576c1.434,1.142,2.789,2.223,3.997,3.359c4.755,4.474,8.357,5.985,14.275,5.985
		c0.563,0,1.186-0.021,1.816-0.049c0.647-0.034,1.26-0.08,1.83-0.128c0.817-0.061,1.594-0.13,2.373-0.13
		c1.852,0,4.071,0.337,6.394,2.822c1.632,1.746,4.142,5.688,3.918,8.823c-0.423,5.984-7.861,6.165-13.293,6.297
		c-1.477,0.038-2.88,0.067-3.86,0.218c-1.165,0.168-2.318,0.365-3.532,0.562c-3.47,0.591-7.045,1.195-10.706,1.195
		c-1.607,0-3.075-0.108-4.525-0.336c-3.877-0.625-5.03-2.06-6.63-4.052c-0.419-0.513-0.892-1.099-1.472-1.746
		c-1.842-2.04-3.956-3.186-6.409-4.504c-0.441-0.239-0.897-0.487-1.354-0.735c-5.549-3.077-9.943-6.897-14.709-11.213
		c-1.036-0.943-2.247-1.962-3.536-3.042c-3.721-3.126-7.936-6.669-10.266-10.271c-2.61-4.032-1.734-9.397-0.965-14.127
		c0.279-1.709,0.545-3.318,0.617-4.7c0.372-7.432-0.572-13.245-2.965-18.283l-0.187-0.392c-0.651-1.371-1.729-3.661-3.001-4.189
		c-0.206-0.082-0.367-0.138-0.505-0.158l-0.372-0.024c-0.305,0.044-0.595,0.36-1.258,1.233c-0.701,0.922-1.582,2.073-3.061,2.842
		c-2.705,1.406-5.609,1.827-8.411,2.229c-3.293,0.474-6.396,0.926-8.799,2.942c-1.447,1.218-2.665,2.566-3.86,4.002
		c-2.087,4.317-6.462,8.388-10.008,10.086c-1.545,0.742-3.159,1.104-4.716,1.454c-0.046,0.015-0.084,0.024-0.125,0.031
		c-2.155,0.852-4.372,1.753-6.127,2.957c-3.003,2.077-4.756,5.147-6.576,8.646c-1.322,2.516-1.758,4.847-2.256,7.56
		c-0.23,1.257-0.475,2.539-0.809,3.929c-0.14,0.552-0.29,1.105-0.435,1.661c-0.848,3.208-1.659,6.259-0.725,9.283
		c0.912-0.044,1.876-0.415,2.897-0.81c1.433-0.559,3.091-1.196,4.966-1.038c3.673,0.289,7.015,2.759,9.455,4.556
		c2.616,1.932,4.492,5.825,4.569,9.472c0.061,2.8-0.942,5.176-2.826,6.698c-1.929,1.556-5.514,1.95-8.391,2.277
		c-0.645,0.075-1.228,0.141-1.691,0.211c-2.951,0.447-6.168,0.844-9.526,0.81c-0.363-0.003-0.731-0.003-1.109-0.011
		c-5.524-0.032-13.101-0.091-15.44-6.412c-1.018-2.757-1.549-5.399-2.064-7.955c-0.84-4.161-1.629-8.082-4.453-11.81
		c-3.751-4.959-2.954-9.681-2.11-14.671c0.168-0.98,0.34-1.995,0.481-3.039c0.519-3.691,0.755-6.782,0.246-9.866
		c-0.118-0.711-0.423-1.63-0.746-2.608c-0.699-2.12-1.495-4.521-0.967-6.549c1.126-4.402,5.27-5.892,8.923-7.199
		c1.907-0.681,3.714-1.341,4.972-2.308c-1.321-9.755,3.146-19.761,6.745-27.848c1.115-2.505,2.007-5.178,2.958-8.002
		c1.555-4.628,3.152-9.419,5.813-13.429l0.929-1.408c3.018-4.545,6.134-9.245,8.964-13.997c0.401-0.672,0.806-1.332,1.198-1.977
		c1.644-2.683,3.182-5.209,4.317-8.276c1.601-4.319,3.229-7.744,5.307-10.964c-4.099,0.233-11.917,0.316-27.103,0.484
		c-14.535,0.144-31.007,0.311-34.323,0.847c-9.636,1.559-32.98,7.135-41.818,25.14c-3.23,6.579-4.958,17.227-1.136,25.073
		c2.785,5.715,12.089,15.247,17.85,15.746c0.769,0.061,1.51,0.126,2.21,0.187c7.233,0.596,12.018,0.994,18.915,5.652
		c4.653,3.142,9.672,7.89,15.34,14.531l1.672,1.968l-2.5,0.645c-6.163,1.591-12.541,3.23-18.846,3.23
		c-4.474,0-8.579-0.815-12.536-2.486c-4.92-2.073-8.167-3.452-10.511-8.629c-0.251-0.552-0.346-1.303-0.491-2.706
		c-0.083-0.774-0.225-2.111-0.404-2.744c-10.443-3.762-17.792-10.096-21.86-18.821c-3.751-8.058-4.561-17.799-2.41-28.962
		c1.645-8.525,6.139-16.012,12.978-21.641c24.037-19.78,52.043-21.054,81.682-22.399l3.881-0.183
		c12.626-0.586,22.265-2.491,34.39-6.785c13.475-4.771,24.792-8.472,37.461-9.148l0.277-0.015c3.305-0.16,6.815-0.245,10.434-0.245
		c10.744,0,21.623,0.718,32.141,1.411c10.472,0.691,21.3,1.406,31.947,1.406c1.342,0,2.674-0.006,4.027-0.03
		c13.83-0.248,27.573-2.501,40.873-4.69c5.663-0.935,11.53-1.898,17.359-2.698l0.678-0.088c7.74-1.064,15.24-2.963,22.865-4.345
		c0.265-0.045,0.53-0.109,0.788-0.172c-0.019,0.017-0.032,0.031-0.06,0.048h-0.001c-0.396,0.289-0.783,0.594-1.161,0.899
		c-1.164,0.987-2.263,2.053-3.297,3.189c-1.012,1.154-1.945,2.366-2.809,3.631c-0.875,1.264-1.631,2.596-2.332,3.961
		c-0.701,1.367-1.341,2.771-1.862,4.21c-0.532,1.442-0.977,2.923-1.346,4.417c-0.179,0.753-0.336,1.511-0.475,2.276l-0.358,2.211
		c-0.953,5.808-2.149,11.608-4.548,16.87c-1.232,2.599-2.768,5.084-4.977,6.887c-1.094,0.913-2.359,1.606-3.739,2.06
		c-1.378,0.453-2.859,0.62-4.352,0.579c1.46,0.319,3.003,0.387,4.519,0.116c1.525-0.259,2.996-0.882,4.318-1.731
		c1.315-0.853,2.45-1.954,3.454-3.137c1.01-1.189,1.838-2.503,2.59-3.852c1.495-2.694,2.546-5.585,3.403-8.503
		c0.437-1.452,0.804-2.931,1.12-4.407c0.326-1.477,0.605-2.962,0.861-4.446l0.355-2.206c0.116-0.704,0.254-1.402,0.411-2.11
		c0.316-1.396,0.719-2.789,1.194-4.153c0.469-1.362,0.985-2.713,1.593-4.031c0.6-1.322,1.279-2.596,1.999-3.858
		c0.722-1.256,1.525-2.467,2.403-3.631c0.854-1.167,1.794-2.291,2.809-3.339c0.742-0.794,1.535-1.543,2.365-2.254l0.018-0.067
		l0.107-0.021c0.739-0.625,1.509-1.231,2.311-1.8c0.515-0.29,1.034-0.572,1.57-0.854c2.155-1.165,3.2-2.699,4.498-4.643
		c0.67-1.004,1.363-2.04,2.273-3.115c1.871-2.186,4.01-4.405,7.063-5.883c0.893-0.435,1.81-0.783,2.806-1.066
		c3.927-1.115,7.811-2.114,12.208-2.014c0.685,0.012,1.346,0.02,1.991,0.023c2.543,0.014,4.954,0.028,7.802,0.751
		c2.383,0.607,4.234,0.398,6.821-0.768c1.586-0.715,3.142-1.505,4.716-2.291c0.915-0.455,1.827-0.914,2.728-1.355
		c5.066-2.45,11.044-4.955,18.054-3.656c3.433,0.634,6.864,0.059,10.49-0.572c0.261-0.051,0.506-0.102,0.755-0.149l0.011,0.021
		c3.408-0.593,6.92-1.145,10.585-0.648c2.741,0.369,5.403,0.892,7.887,3.268c1.084,1.041,1.734,2.373,2.312,3.563
		c0.409,0.835,0.868,1.788,1.265,2.036c0.756,0.481,1.858,0.712,3.024,0.957c1.66,0.35,3.535,0.747,5.169,1.993
		c2.617,1.992,4.714,5.011,6.073,8.731c0.423,1.131,0.668,2.413,0.946,3.788c1.021,5.091,1.906,7.423,5.522,6.915
		c0.376-0.055,0.789-0.191,1.232-0.404c1.096-0.539,2.304-1.547,3.162-2.639l2.503-3.217l0.373,4.059
		c0.325,3.449-0.885,6.274-3.437,8.085c1.783,1.444,4.134,3.624,6.073,6.381c0.773,1.014,1.383,2.131,1.975,3.223
		c0.204,0.37,0.401,0.743,0.606,1.109l-0.154,0.099c0.389,0.987,0.714,2.021,0.929,3.101c0.221,1.196,0.253,1.819,0.258,2.219
		c0,0.099,0,0.164,0.01,0.24c0.063,0.222,0.709,1.269,1.097,1.9c0.879,1.426,2.196,2.85,3.455,4.224
		c0.343,0.37,0.678,0.737,0.995,1.081c1.517,1.697,2.872,3.283,4.18,4.822c2.566,3.029,4.996,5.897,8.258,8.951
		c0.401,0.374,0.786,0.715,1.133,1.028C748.708,463.39,750.45,464.926,749.896,468.594L749.896,468.594z M576.591,536.878
		c-0.132,0.005-0.269,0.014-0.413,0.029l-0.025,0.027l0.025-0.028C576.321,536.891,576.459,536.883,576.591,536.878L576.591,536.878
		z M706.775,427.27c-1.661,0.623-3.398,0.992-5.161,1.272c-3.533,0.58-7.253,0.781-10.985,1.97c-0.918,0.309-1.84,0.677-2.729,1.136
		c-0.885,0.469-1.742,1.031-2.513,1.695c-1.554,1.321-2.737,3.054-3.464,4.874c-0.386,0.938-0.638,1.911-0.749,2.918
		c-0.117,1.004-0.058,2.03,0.193,3.01c0.268,0.967,0.728,1.888,1.372,2.626c0.65,0.736,1.45,1.298,2.305,1.668
		c-0.698-0.623-1.291-1.323-1.682-2.097c-0.404-0.773-0.643-1.593-0.691-2.433c-0.115-1.665,0.373-3.331,1.162-4.79
		c0.817-1.508,1.868-2.807,3.171-3.809c1.291-1.001,2.819-1.715,4.46-2.247c3.291-1.062,6.961-1.464,10.595-2.461
		c1.816-0.5,3.637-1.154,5.287-2.147c1.637-0.997,3.104-2.326,4.04-3.935C709.985,425.745,708.439,426.667,706.775,427.27
		L706.775,427.27z M402.88,532.263c0,0,14.753-27.15,42.586-28.212C445.465,504.051,416.758,499.326,402.88,532.263L402.88,532.263z
		 M450.013,487.452c-0.463-8.169,1.003-15.15-2.618-24.161c-0.592-1.451-1.885-2.403-3.074-3.41
		c6.281,5.378,1.936,18.367,4.627,34.488c2.688,16.132,21.999,25.411,21.999,25.411c-2.994-2.232-5.873-4.631-8.52-7.275
		C455.585,505.688,450.573,497.262,450.013,487.452L450.013,487.452z M538.819,510.814c-0.995,1.718-1.559,3.626-1.924,5.526
		c-0.681,3.831-0.589,7.703-0.098,11.497c0.068,0.477,0.149,0.937,0.197,1.367c0.059,0.438,0.098,0.88,0.135,1.323
		c0.083,0.892,0.111,1.783,0.111,2.682c0,1.795-0.126,3.605-0.345,5.419c-0.394,3.643-1.181,7.336-1.386,11.122
		c1.298-3.538,2.634-7.026,3.483-10.764c0.418-1.861,0.697-3.774,0.8-5.715c0.048-0.973,0.038-1.943-0.007-2.921
		c-0.036-0.491-0.086-0.981-0.142-1.46c-0.047-0.501-0.121-0.967-0.177-1.413c-0.473-3.604-0.739-7.267-0.484-10.859
		c0.139-1.786,0.415-3.568,1.017-5.239c0.596-1.666,1.605-3.206,3.21-4.244c-0.919,0.241-1.786,0.734-2.532,1.381
		C539.942,509.163,539.335,509.966,538.819,510.814L538.819,510.814z"/>
	<polygon style="fill:#FFFFFF;" points="406.555,507.289 406.555,487.944 404.16,496.83 396.247,496.83 393.912,487.996 
		393.912,507.289 385.647,507.289 385.647,462.49 393.758,462.49 400.237,482.957 406.714,462.49 414.83,462.49 414.83,507.289 
		406.555,507.289 	"/>
	<path style="fill:#FFFFFF;" d="M415.184,462.136h-0.709h-7.5h-0.519l-0.157,0.495l-6.062,19.15l-6.062-19.15l-0.156-0.495h-0.52
		h-7.495h-0.71v0.709v44.09v0.709h0.71h7.555h0.709v-0.709v-16.207l1.566,5.929l0.141,0.528h0.546h7.368h0.543l0.142-0.525
		l1.627-6.037v16.312v0.709h0.71h7.565h0.709v-0.709v-44.09V462.136L415.184,462.136z M414.475,462.845v44.09h-7.565v-21.669
		l-3.022,11.209h-7.368l-2.961-11.209v21.669h-7.555v-44.09h7.495l6.738,21.286l6.738-21.286H414.475L414.475,462.845z"/>
	<path style="fill:#FFFFFF;" d="M432.19,470.756h-4.772v15.163h4.772V470.756L432.19,470.756z M432.19,507.289v-13.103h-4.772
		v13.103h-8.264v-39.785c0-2.765,2.248-5.015,5.012-5.015h11.343c2.765,0,5.015,2.25,5.015,5.015v39.785H432.19L432.19,507.289z"/>
	<path style="fill:#FFFFFF;" d="M427.772,471.111h4.063v14.454h-4.063V471.111L427.772,471.111z M435.508,462.135h-11.343
		c-2.959,0-5.366,2.409-5.366,5.369v39.43v0.709h0.71h7.555h0.709v-0.709v-12.394h4.063v12.394v0.709h0.709h7.622h0.709v-0.709
		V476.26v-7.056v-1.7C440.876,464.544,438.468,462.135,435.508,462.135L435.508,462.135z M427.064,486.275h5.481v-15.873h-5.481
		V486.275L427.064,486.275z M435.508,462.845c2.518,0,4.659,2.077,4.659,4.66v1.7v7.056v30.675h-7.622v-13.103h-5.481v13.103h-7.555
		v-39.43c0-2.583,2.075-4.66,4.657-4.66H435.508L435.508,462.845z"/>
	<polygon style="fill:#FFFFFF;" points="458.41,507.289 458.277,506.768 452.689,488.961 452.609,488.961 452.609,507.289 
		444.34,507.289 444.34,462.49 452.609,462.49 452.609,480.559 458.36,462.49 466.788,462.49 459.62,484.832 466.788,507.289 
		458.41,507.289 	"/>
	<path style="fill:#FFFFFF;" d="M467.274,462.136h-0.974h-7.681h-0.519l-0.158,0.493l-4.978,15.644v-15.428v-0.709h-0.709h-7.561
		h-0.709v0.709v44.09v0.709h0.709h7.561h0.709v-0.709v-15.908l4.978,15.865l0.055,0.22l0.137,0.532h0.549h7.616h0.972l-0.295-0.925
		l-6.985-21.887l6.985-21.77L467.274,462.136L467.274,462.136z M466.301,462.845l-7.053,21.987l7.053,22.103h-7.616l-0.065-0.255
		l-5.671-18.073h-0.692v18.328h-7.561v-44.09h7.561v18.204h0.569l5.795-18.204H466.301L466.301,462.845z"/>
	<polygon style="fill:#FFFFFF;" points="468.217,507.289 468.217,462.49 489.585,462.49 489.585,470.756 476.483,470.756 
		476.483,480.696 486.941,480.696 486.941,488.961 476.483,488.961 476.483,498.961 489.585,498.961 489.585,507.289 
		468.217,507.289 	"/>
	<path style="fill:#FFFFFF;" d="M489.94,462.136h-0.709h-20.659h-0.709v0.709v44.09v0.709h0.709h20.659h0.709v-0.709v-7.621v-0.71
		h-0.709h-12.393v-9.289h9.749h0.709v-0.709v-7.558v-0.709h-0.709h-9.749v-9.229h12.393h0.709v-0.709v-7.556V462.136L489.94,462.136
		z M489.231,462.845v7.556h-13.102v10.647h10.458v7.558h-10.458v10.707h13.102v7.621h-20.659v-44.09H489.231L489.231,462.845z"/>
	<polygon style="fill:#FFFFFF;" points="503.108,462.49 511.371,462.49 511.371,507.289 503.108,507.289 503.108,462.49 	"/>
	<path style="fill:#FFFFFF;" d="M511.725,462.136h-0.71h-7.554h-0.709v0.709v44.09v0.709h0.709h7.554h0.71v-0.709v-44.09V462.136
		L511.725,462.136z M511.016,506.935h-7.554v-44.09h7.554V506.935L511.016,506.935z"/>
	<polygon style="fill:#FFFFFF;" points="528.258,507.289 523.336,490.18 523.336,507.289 515.07,507.289 515.07,462.49 
		523.18,462.49 528.107,478.556 528.107,462.49 536.436,462.49 536.436,507.289 528.258,507.289 	"/>
	<path style="fill:#FFFFFF;" d="M536.79,462.136h-0.709h-7.619h-0.709v0.709v13.345l-4.156-13.553l-0.153-0.502h-0.525h-7.493
		h-0.709v0.709v44.09v0.709h0.709h7.558h0.709v-0.709v-14.24l4.151,14.435l0.147,0.514h0.535h7.555h0.709v-0.709v-44.09V462.136
		L536.79,462.136z M536.08,462.845v44.09h-7.555l-5.543-19.272v19.272h-7.558v-44.09h7.493l5.544,18.078v-18.078H536.08
		L536.08,462.845z"/>
	<polygon style="fill:#FFFFFF;" points="551.472,462.49 559.738,462.49 559.738,507.289 551.472,507.289 551.472,462.49 	"/>
	<path style="fill:#FFFFFF;" d="M560.093,462.136h-0.709h-7.556h-0.71v0.709v44.09v0.709h0.71h7.556h0.709v-0.709v-44.09V462.136
		L560.093,462.136z M559.384,506.935h-7.556v-44.09h7.556V506.935L559.384,506.935z"/>
	<polygon style="fill:#FFFFFF;" points="576.625,507.289 571.703,490.18 571.703,507.289 563.438,507.289 563.438,462.49 
		571.549,462.49 576.477,478.556 576.477,462.49 584.807,462.49 584.807,507.289 576.625,507.289 	"/>
	<path style="fill:#FFFFFF;" d="M585.161,462.136h-0.709h-7.622h-0.709v0.709v13.345l-4.156-13.553l-0.154-0.502h-0.525h-7.494
		h-0.709v0.709v44.09v0.709h0.709h7.557h0.709v-0.709v-14.24l4.151,14.435l0.147,0.514h0.535h7.561h0.709v-0.709v-44.09V462.136
		L585.161,462.136z M584.453,462.845v44.09h-7.561l-5.542-19.272v19.272h-7.557v-44.09h7.494l5.544,18.078v-18.078H584.453
		L584.453,462.845z"/>
	<path style="fill:#FFFFFF;" d="M601.668,470.756h-4.775v28.204h4.775V470.756L601.668,470.756z M588.626,507.289v-44.8h16.356
		c2.766,0,5.016,2.25,5.016,5.015v34.767c0,2.72-2.297,5.018-5.016,5.018H588.626L588.626,507.289z"/>
	<path style="fill:#FFFFFF;" d="M597.248,471.111h4.066v27.495h-4.066V471.111L597.248,471.111z M604.982,462.135H588.98h-0.71
		v0.709v44.09v0.709h0.71h16.001c2.911,0,5.371-2.461,5.371-5.372v-34.768C610.352,464.544,607.944,462.135,604.982,462.135
		L604.982,462.135z M596.538,499.316h5.484v-28.914h-5.484V499.316L596.538,499.316z M604.982,462.845
		c2.52,0,4.661,2.077,4.661,4.66v34.768c0,2.519-2.141,4.663-4.661,4.663H588.98v-44.09H604.982L604.982,462.845z"/>
	<polygon style="fill:#FFFFFF;" points="614.197,462.49 622.461,462.49 622.461,507.289 614.197,507.289 614.197,462.49 	"/>
	<path style="fill:#FFFFFF;" d="M622.816,462.136h-0.709h-7.555h-0.709v0.709v44.09v0.709h0.709h7.555h0.709v-0.709v-44.09V462.136
		L622.816,462.136z M622.107,506.935h-7.555v-44.09h7.555V506.935L622.107,506.935z"/>
	<path style="fill:#FFFFFF;" d="M639.203,470.756h-4.768v15.163h4.768V470.756L639.203,470.756z M639.203,507.289v-13.103h-4.768
		v13.103h-8.272v-39.785c0-2.765,2.25-5.015,5.015-5.015h11.336c2.765,0,5.016,2.25,5.016,5.015v39.785H639.203L639.203,507.289z"/>
	<path style="fill:#FFFFFF;" d="M634.79,471.111h4.058v14.454h-4.058V471.111L634.79,471.111z M642.512,462.135h-11.334
		c-2.96,0-5.367,2.409-5.367,5.369v39.43v0.709h0.709h7.561h0.709v-0.709v-12.394h4.058v12.394v0.709h0.709h7.618h0.71v-0.709
		V476.26v-7.056v-1.7C647.885,464.544,645.474,462.135,642.512,462.135L642.512,462.135z M634.081,486.275h5.477v-15.873h-5.477
		V486.275L634.081,486.275z M642.512,462.845c2.522,0,4.663,2.077,4.663,4.66v1.7v7.056v30.675h-7.618v-13.103h-5.477v13.103h-7.561
		v-39.43c0-2.583,2.075-4.66,4.658-4.66H642.512L642.512,462.845z"/>
</g>
</svg>
