<svg id="Layer_1" data-name="Layer 1" xmlns="http://www.w3.org/2000/svg" viewBox="0 0 692 300"><defs><style>.cls-1{fill:#1e1e1c;fill-rule:evenodd;}</style></defs><title>Swacch-Bharat</title><g id="Group_21657" data-name="Group 21657"><path id="Path_26916" data-name="Path 26916" class="cls-1" d="M194.59,112.35H248V122H194.59Z"/><path id="Path_26917" data-name="Path 26917" class="cls-1" d="M194.59,130H248v9.61H194.59Z"/><path id="Path_26918" data-name="Path 26918" class="cls-1" d="M76.66,149.41a12.71,12.71,0,0,1-3.24.55,14.21,14.21,0,0,1-5-.71V137.36h29v9.31a33.76,33.76,0,0,0-5.06-5,11.06,11.06,0,0,0-5-1.15,10.07,10.07,0,0,0-10.71,8.8Zm298-12.06v5.35h-9c-6.52,0-9.4,3.7-9.4,7.15,0,4.25,2.32,8.2,9,17.75l2.53-1.9a20.21,20.21,0,0,1-5.71-11.25c0-3.5,1.26-6,5.76-6h6.87v15.36l6.16,4.25V137.33h6.76l-3.38-5.75H298l3.38,5.75h5v12.86H296v-7.38c0-4.11-2.32-11.21-9.55-11.21a6.8,6.8,0,0,0-7.11,6.45c0,.15,0,.3,0,.45,0,3.9,3.18,7.7,10.86,9.45l-.36,2.2H286.4a1.91,1.91,0,0,0-2,1.85,1.33,1.33,0,0,0,0,.2c0,2.35,6.67,8.61,8.74,8.61s1.92-1.15,2.07-5h10.95v7.86l6.11,4.25V137.36h8.28v26.45l6.06,4.25V137.34h13.74v9.4c0,.7,0,1.2-.76,1.2s-2.78-1.7-4.59-1.7a2.51,2.51,0,0,0-1.92,2.25c0,1.09,1.21,2.89,3.65,5.85l11.77,14.1L351,166a74.62,74.62,0,0,1-8.83-10,9,9,0,0,0,4.45-6.65v-12H374.8Zm-83.9,2.15V145c-3.93-.65-5.65-2.45-5.65-5a4.1,4.1,0,0,1,3.33-4.3c1.41,0,2.73,1.08,2.58,4.1Zm-132.83,1.7v-3.84h9.65l-3.29-5.75H49.74L53,137.36h9.55v10c0,.5,0,.85-.37.85s-2.22-2-3.65-2a2.66,2.66,0,0,0-2.47,2.4A14.63,14.63,0,0,0,59,155l10.91,15,2.52-2.5a93.74,93.74,0,0,1-8.63-10.35,20.7,20.7,0,0,0,4.56-5,9.82,9.82,0,0,0,6,3.4,15.39,15.39,0,0,0,4.09-.65,13,13,0,0,0,10.1,6.45,15.23,15.23,0,0,0,9-4v6.31l5.91,4.25V137.36h48.64v3.2a7,7,0,0,0-6.42,7.15c0,3.55,2.78,6.87,8.29,10a17.53,17.53,0,0,1-12.27,5.65c-3.14,0-4-.9-4-2.45s2-3.95,7.83-3.95L143,150.91a10.16,10.16,0,0,0-5.76,1.06,6.85,6.85,0,0,1-1.06-.8l-1.06-1.66a2,2,0,0,1,0-.6,3.52,3.52,0,0,1,3.76-3.26H139a21.09,21.09,0,0,1,3.89.36l-2.72-5.5a13.54,13.54,0,0,0-2.83-.36,6.82,6.82,0,0,0-7,4.6l-1.06-1.95H108.53l3.33,5.75h3.84a7.77,7.77,0,0,0-1.06,4.15,11.87,11.87,0,0,0,10.66,10,14.72,14.72,0,0,0,7.66-3.4,14.35,14.35,0,0,0,12.41,8.9,18.84,18.84,0,0,0,17.78-17.5,14.15,14.15,0,0,0-5.36-9.35Zm-27.07,7.25A15.21,15.21,0,0,0,133,151.6,18,18,0,0,1,122,157.75c-1.51,0-2.28-.59-2.28-2a8.41,8.41,0,0,1,4-6.45,12.08,12.08,0,0,1,5.05-.8Zm24.65,7.15a7.76,7.76,0,0,1-3.59-6.2,4.68,4.68,0,0,1,4-5c1.16,0,2.07,1,2.07,3.75a15.54,15.54,0,0,1-2.47,7.51Zm-69.9,1.09a3.31,3.31,0,0,1-3.31-3.32c0-.13,0-.26,0-.38a6.37,6.37,0,0,1,6.1-6.65h0a14.07,14.07,0,0,1,9.24,3.75v.8a31.88,31.88,0,0,1-12.07,5.8Z"/><path id="Path_26919" data-name="Path 26919" class="cls-1" d="M39,280.43V267.48h20.2v7.95h0a9.47,9.47,0,0,0-3.08-4,8.8,8.8,0,0,0-3.84-.9,7.09,7.09,0,0,0-7.51,6.64c0,.1,0,.2,0,.3a10,10,0,0,0,9.29,8.2,9.82,9.82,0,0,0,5.41-2.35v4.5l4.64,3.26V280.72a16.28,16.28,0,0,1,6.62-3.89,1.65,1.65,0,0,1,1.51,1.55,26.13,26.13,0,0,1-3.43,8.15l4.29,3.15a18.16,18.16,0,0,0,2.73-8.15,8.12,8.12,0,0,0-6.77-8.6A10.08,10.08,0,0,0,64,275v-7.55H79.13l-2.58-4.3H16.35l2.53,4.3h3.65v14c0,1.05.3,1.9,1.92,2.95s12.62,7.5,14,8.4a2.59,2.59,0,0,1,1.31,2.1A5.85,5.85,0,0,1,39,297L43.14,300a7.72,7.72,0,0,0,2-3.95,4,4,0,0,0-2.22-3.3l-11.39-7c-3.94-2.4-4.31-3.65-4.31-5v-13.3h7.07v9.65c0,1.85-.55,2.5-1.71,2.5H30.48l2,3.35a13,13,0,0,0,4.09.9c1.62,0,2.37-.65,2.37-3.25Zm374.88-12.95h3.65v7c0,.5,0,.85-.56.85s-2.07-1.25-3.38-1.25a1.38,1.38,0,0,0-1.49,1.27,1.22,1.22,0,0,0,0,.38,14.78,14.78,0,0,0,2.78,4.4l8.48,10.56L425.2,289a69.73,69.73,0,0,1-6.62-7.55,6.71,6.71,0,0,0,3.33-5v-8.95h8.64l-2.58-4.3H405.65a46.67,46.67,0,0,0-7-10,6.15,6.15,0,0,0-4.24-1.81c-1.27,0-2.78,0-2.78,1s0,1.05,2.17,4.5a13.06,13.06,0,0,1,2.92-.45,3.67,3.67,0,0,1,2.63,1.15,31.18,31.18,0,0,1,4.38,5.65H387.44l2.43,4.3h3.33v6.3c0,1.3-2.68,2.85-5.05,2.85a6.37,6.37,0,0,1-4-1.9,4.09,4.09,0,0,0,2.27-3.61,10.8,10.8,0,0,0-9.55-8.53,26.41,26.41,0,0,0-6.76,1.81l2.42,4.45a24.4,24.4,0,0,1,7.63-2.1c1.31,0,2.17.45,2.17,1.85,0,2.29-2.32,4.3-7.18,5-1,0-1.26.45-1.26.65a17.24,17.24,0,0,0,2.78,3.85,20.54,20.54,0,0,0,5.66-2.15,7.09,7.09,0,0,1,1,3.65,5.05,5.05,0,0,1-5.41,4.2c-2.83,0-5.71-2.5-8-7.16l-1.82,1.09c2.83,5.9,7.47,10,11.71,10a6.91,6.91,0,0,0,7.61-6.13c0-.05,0-.11,0-.17a7.14,7.14,0,0,0-.56-2.85h0a13.74,13.74,0,0,0,4.35,1.65,4.58,4.58,0,0,0,1.87-.25v7.3l4.59,3.2V267.48h5.05v20l4.55,3.21V267.48h6.58Zm-55.56,0-2.53-4.3h-5c-.86-7.9-4.7-11.57-9.29-11.57a5.94,5.94,0,0,0-6.41,5,6.34,6.34,0,0,0,1.71,3.95l2.73-.3a9.09,9.09,0,0,1,0-1.65,3.52,3.52,0,0,1,3.63-3.4h.05c2.88,0,5.41,3.1,5.56,7.7H308.28l2.53,4.3h17v8h0a9.12,9.12,0,0,0-3.13-4,8.36,8.36,0,0,0-3.79-.9,7.1,7.1,0,0,0-7.71,6.42,6.66,6.66,0,0,0,0,.77,10.07,10.07,0,0,0,9.24,8.21,9.75,9.75,0,0,0,5.41-2.35v4.5l4.65,3.25V280.72a16,16,0,0,1,6.57-3.89,1.64,1.64,0,0,1,1.56,1.55,27.33,27.33,0,0,1-3.43,8.15l4.29,3.15a18.08,18.08,0,0,0,2.67-8.15,8,8,0,0,0-6.76-8.6,10,10,0,0,0-5.05,2.1v-7.55h15.15v20l4.49,3.21V267.48Zm-30.56,10.6a28.66,28.66,0,0,1-8.28,4.4c-1,0-2-1.08-2-2.85a5,5,0,0,1,4.7-5,7.78,7.78,0,0,1,5.55,3.3Zm-32.12,12.35V267.48h6.16l-2.57-4.3H177.44l2.57,4.3h7.33v8.15s-1.72-1.5-2.78-1.5a2,2,0,0,0-1.92,1.81,10.59,10.59,0,0,0,2.22,5L193.3,292l2-1.85a62.58,62.58,0,0,1-6.71-7.75,16.16,16.16,0,0,0,3.48-3.62,7.91,7.91,0,0,0,4.7,2.56,16.15,16.15,0,0,0,3.18-.46,10.15,10.15,0,0,0,7.93,4.75,11.91,11.91,0,0,0,7-2.95v4.7l4.6,3.2V267.48h37.73V270a5.38,5.38,0,0,0-5.06,5.4c0,2.6,2.13,5,6.37,7.35a13.73,13.73,0,0,1-9.49,4.3c-2.43,0-3.08-.75-3.08-1.9s1.51-2.95,6.06-2.95l-2-4.5a7.76,7.76,0,0,0-4.49.8,3,3,0,0,1-.76-.65v-1.95a5.39,5.39,0,0,1-.76.75,1.7,1.7,0,0,1,0-.45,2.72,2.72,0,0,1,2.95-2.46h.08a14.91,14.91,0,0,1,3,.3l-2.53-4a7.9,7.9,0,0,0-2.17-.3,5.05,5.05,0,0,0-5.45,3.4l-.86-1.4H223l2.57,4.3h3a5.67,5.67,0,0,0-.86,3.1,9.17,9.17,0,0,0,8.34,7.45,10.91,10.91,0,0,0,5.91-2.6,11.17,11.17,0,0,0,9.7,6.71,14.43,14.43,0,0,0,13.78-13.11,10.48,10.48,0,0,0-4.14-6.95v-3.1h20.2v4H274.8c-5.05,0-7,2.75-7,5.36s1.71,6.1,6.77,13.25l1.92-1.45a14.92,14.92,0,0,1-4.35-8.4c0-2.6,1-4.45,4.35-4.45h5v11.44l4.54,3.2V267.48h5v20l4.55,3.21Zm-55.55-14.65a12.8,12.8,0,0,0,1.66,2.35,13.9,13.9,0,0,1-8.53,4.65c-1.21,0-1.83-.5-1.83-1.55a6.27,6.27,0,0,1,3.16-5,9.4,9.4,0,0,1,3.93-.6Zm19.14,5.3a5.67,5.67,0,0,1-2.83-4.65,3.56,3.56,0,0,1,3.13-3.75c.86,0,1.62.8,1.62,2.85A11,11,0,0,1,259.21,281.08Zm-59.65-13.6h15.15v6.95a23.93,23.93,0,0,0-3.94-3.65,8,8,0,0,0-4-.85,7.65,7.65,0,0,0-8.33,6.5,8.05,8.05,0,0,1-2.47.46,11.9,11.9,0,0,1-3.8-.5v-8.91h7.38Zm5.66,14.46a2.58,2.58,0,0,1-2.54-2.6s0-.1,0-.15a5,5,0,0,1,4.75-5,11.47,11.47,0,0,1,7.17,2.8v.65a24.72,24.72,0,0,1-9.4,4.31ZM153,281.23h8.12v6l4.64,3.2V267.48h5l-2.52-4.3H85.4l2.57,4.3h17v7.95h0a9,9,0,0,0-3.08-4,8.63,8.63,0,0,0-3.84-.9,7.09,7.09,0,0,0-7.51,6.64c0,.1,0,.2,0,.3a10,10,0,0,0,9.24,8.2,9.43,9.43,0,0,0,5.4-2.35v4.5l4.65,3.26V280.72a16.08,16.08,0,0,1,6.36-3.89,1.69,1.69,0,0,1,1.57,1.55,27.1,27.1,0,0,1-3.44,8.15l4.25,3.15a18.2,18.2,0,0,0,2.67-8.15,8.11,8.11,0,0,0-6.82-8.6,10.11,10.11,0,0,0-5.05,2.1v-7.55H136.5v4.15H130c-4.1,0-6.32,1.7-6.32,5.45a11.62,11.62,0,0,0,11.52,11.7,6.65,6.65,0,0,0,3.23-.6l3.59,7.15,2.37-1.15-4-6.86a3.24,3.24,0,0,0,1.82-2.7c0-1.95-4.34-5-5.75-5a1.61,1.61,0,0,0-1.62,1.3c0,1.5.76,1.8.76,2.55s-1.57,1.6-3.38,1.6a5,5,0,0,1-4.65-5A4,4,0,0,1,131,275.6a3.54,3.54,0,0,1,.65,0h8.64c.5,0,.91-.45.91-1.2v-6.89h7.22v9.35h-1.51a1.15,1.15,0,0,0-1.26,1,.41.41,0,0,0,0,.11,12.71,12.71,0,0,0,6,6.65c.81,0,1.32-.4,1.32-1.09v-2.31Zm8-13.75v9.45h-8v-9.45ZM105,278.08a28.21,28.21,0,0,1-8.28,4.41c-1,0-1.92-1.09-1.92-2.86a5,5,0,0,1,4.7-5,7.74,7.74,0,0,1,5.5,3.3Zm-46,0a28,28,0,0,1-8.48,4.4c-1,0-1.92-1.08-1.92-2.85a5,5,0,0,1,4.7-5,7.75,7.75,0,0,1,5.51,3.3Z"/><path id="Path_26920" data-name="Path 26920" class="cls-1" d="M106.76,48.69c53.42-.06,96.78,42.77,96.84,95.67S160.4,240.18,107,240.24,10.2,197.47,10.14,144.57v-.17C10.17,91.57,53.4,48.75,106.76,48.69Zm0,8.55c48.62,0,88,39,88,87.17s-39.42,87.16-88,87.16-88-39-88-87.17,39.42-87.16,88-87.16Z"/><path id="Path_26921" data-name="Path 26921" class="cls-1" d="M335.3,48.69c53.42,0,96.76,42.82,96.79,95.71s-43.24,95.81-96.67,95.84-96.75-42.82-96.79-95.71v-.11C238.66,91.57,281.92,48.72,335.3,48.69Zm0,8.55c-48.54.07-87.84,39.09-87.77,87.15s39.48,87,88,86.91,87.84-39.09,87.77-87.15S384,57.31,335.55,57.24Z"/><path id="Path_26922" data-name="Path 26922" class="cls-1" d="M6.3,139.41c-5.56,2.5-9.35-5.4-3-8.26l33.58-15L248.58,18.63l19.71-8.4c23.53-8.8,46.72-15,67.42-5.35,32.07,16.15,27.18,63.36,0,85.66a4.48,4.48,0,0,1-6.26.52,4.36,4.36,0,0,1-.53-6.2,4.62,4.62,0,0,1,.59-.58c41.11-42.91,15.61-95-52.53-68-4.29,1.7-7.93,3.1-12.12,5C187.13,56,109.75,92,32.53,127.74L6.3,139.46Z"/><path id="Path_26923" data-name="Path 26923" class="cls-1" d="M419.24,140c-5.5,2.65-9.34-5.3-3-8.25L583.34,54.93,603,46.43c23.59-8.8,46.06-16.2,66.72-6.45,32.12,16.2,27.22,63.46,0,85.72a4.49,4.49,0,0,1-6.29.12,4.38,4.38,0,0,1-.12-6.23l.2-.19c40.81-43.81,15.66-96.07-51.83-66.87-4.19,1.85-7.93,3.1-12.12,5-60.6,27-120.72,53.72-180.46,82.17Z"/></g></svg>